<?xml version="1.0" encoding="utf-8"?>
<!-- Generator: Adobe Illustrator 23.1.1, SVG Export Plug-In . SVG Version: 6.00 Build 0)  -->
<svg version="1.1" id="Слой_1" xmlns="http://www.w3.org/2000/svg" xmlns:xlink="http://www.w3.org/1999/xlink" x="0px" y="0px"
	 viewBox="0 0 100 100" style="enable-background:new 0 0 100 100;" xml:space="preserve">
<style type="text/css">
	.st0{fill:none;stroke:#2C3549;stroke-width:2;stroke-linecap:round;stroke-linejoin:round;stroke-miterlimit:10;}
	.st1{fill:none;stroke:#06ADEF;stroke-width:4;stroke-linecap:round;stroke-linejoin:round;stroke-miterlimit:10;}
	.st2{fill:none;stroke:#2C3549;stroke-width:4;stroke-linecap:round;stroke-linejoin:round;stroke-miterlimit:10;}
</style>
<g>
	<path class="st0" d="M67.3,76.4c1.3-0.4,0.6-0.6,0.6-0.6v-3c0,0-2-1.7-2.6-3.1c-0.6-1.4-1.8-11.5,6-11.5s6.8,11,5.2,12.8
		c-1.1,1.2-2,1.7-2,1.7v3.1c0,0,10.1,2.2,10.2,5.2s0,9,0,9H71.2"/>
	<path class="st0" d="M65,64.3c2,1.1,4.2-1.2,4.2-1.2c1.5,1.9,7.8,1.4,7.8,1.4"/>
	<path class="st0" d="M49.9,75.8v-3c0,0-2-1.7-2.6-3.1c-0.6-1.4-1.8-11.5,6-11.5s6.8,11,5.2,12.8c-1.1,1.2-2,1.7-2,1.7v3.1
		c0,0,10.1,2.2,10.2,5.2s0,9,0,9H53"/>
	<path class="st0" d="M56.6,75.8v-3c0,0,2-1.7,2.6-3.1c0.6-1.4,1.8-11.5-6-11.5s-6.8,11-5.2,12.8c1.1,1.2,2,1.7,2,1.7v3.1
		c0,0-10.1,2.2-10.2,5.2s0,9,0,9h13.8"/>
	<path class="st0" d="M47,64.3c2,1.1,4.2-1.2,4.2-1.2c1.5,1.9,7.8,1.4,7.8,1.4"/>
	<polyline class="st0" points="68,75.8 71.3,77.7 74.7,75.8 	"/>
	<path class="st0" d="M49.6,76.4c1.3-0.4,0.6-0.6,0.6-0.6v-3c0,0-2-1.7-2.6-3.1c-0.6-1.4-1.8-11.5,6-11.5s6.8,11,5.2,12.8
		c-1.1,1.2-2,1.7-2,1.7v3.1c0,0,10.1,2.2,10.2,5.2s0,9,0,9H53.5"/>
	<path class="st0" d="M47.3,64.3c2,1.1,4.2-1.2,4.2-1.2c1.5,1.9,7.8,1.4,7.8,1.4"/>
	<polyline class="st0" points="50.4,75.8 53.6,77.7 57,75.8 	"/>
	<polyline class="st0" points="56.7,75.8 53.4,77.7 50.1,75.8 	"/>
</g>
<g>
	<polyline class="st1" points="25.4,61.3 21.7,78.6 26.3,83.8 31.1,78.6 27.7,61.3 	"/>
	<g>
		<path class="st0" d="M34.8,89.6H10l-1-21.1c0,0-0.7-9.5,6.1-10.1c7.2-0.7,8.3-1.9,7.4-5.4"/>
		<path class="st0" d="M30.9,52.5C30,56,31,57.7,38.2,58.4c3.4,0.3,4.9,2.8,5.5,5.3"/>
		<path class="st0" d="M21.9,57c2.5,2.1,5.3,2.9,9.8-0.2"/>
		<path class="st0" d="M18.2,38.5c0,3.5,0,5.3,0,7.2s1.1,8,8.3,7.8c7.2-0.1,8.3-5.9,8.3-7.9s0-7.1,0-7.1c-3.4,1.7-11,2.5-17-5.9"/>
		<path class="st0" d="M37.1,37.7c-1.1-4.5-3.4-9-10.4-9.8c-3.9-0.4-7.1,1.9-8.9,4.7c-1.4,2.2-1.8,4.6-1.2,6.3
			c2.4-0.7,4.6-2.6,4.6-2.6"/>
	</g>
</g>
<path class="st2" d="M18.8,23.4v-9.1c0-1.6,1.3-3,3-3h61.9c1.7,0,3,1.4,3,3v36.5"/>
<path class="st2" d="M83.7,63.5c1.7,0,3-1.3,3-3V23.9"/>
<polyline class="st1" points="45.3,30.2 55.6,43.4 72.4,22.5 80.8,30 "/>
<line class="st0" x1="68.1" y1="35.7" x2="77.7" y2="47.1"/>
<polyline class="st0" points="53.7,34.6 55.5,32.9 58.2,22.3 61.5,26.2 "/>
<line class="st0" x1="40.6" y1="44.9" x2="46.9" y2="40"/>
</svg>
