<?xml version="1.0" standalone="no"?>
<!DOCTYPE svg PUBLIC "-//W3C//DTD SVG 1.1//EN" "http://www.w3.org/Graphics/SVG/1.1/DTD/svg11.dtd" >
<svg xmlns="http://www.w3.org/2000/svg">
    <metadata>
        <json>
            <![CDATA[
{
	"fontFamily": "icomoon",
	"description": "Font generated by IcoMoon.",
	"version": "Version 1.0",
	"majorVersion": 0,
	"fontId": "icomoon",
	"psName": "icomoon",
	"subFamily": "Regular",
	"fullName": "icomoon"
}
]]>
        </json>
    </metadata>
    <defs>
        <font id="icomoon" horiz-adv-x="1024">
            <font-face units-per-em="1024" ascent="960" descent="-64"/>
            <missing-glyph horiz-adv-x="1024"/>
            <glyph unicode="&#x20;" horiz-adv-x="512" d=""/>
            <glyph unicode="&#xe600;" glyph-name="uniE600" data-tags="uniE600"
                   d="M801.434 388.813c-3.994 1.28-7.885 2.509-11.315 3.891-35.482 15.104-74.394 32.307-112.077 49.203 12.083 24.986 22.682 53.914 26.214 87.091 1.485 15.309 1.178 31.181 0.717 48.486-0.205 5.786-0.41 11.622-0.41 17.408 0 52.224 0 101.478-30.618 146.125-35.686 52.48-95.386 82.586-163.789 82.586-8.704 0-17.818-0.512-27.494-1.485-84.531-9.523-153.907-75.418-165.12-156.723-2.406-17.306-1.792-33.997-1.178-51.712 0.205-6.195 0.41-12.493 0.41-18.79 0-5.325-0.205-10.906-0.41-16.486-0.512-14.592-1.229-32.819 0.87-51.917 3.123-27.29 14.182-61.389 24.883-85.094-14.899-6.502-30.208-13.21-45.107-19.917-22.477-9.984-44.902-20.019-65.997-28.826-3.226-1.382-7.117-2.611-12.288-4.301-3.379-1.075-82.995-27.904-101.478-75.776-16.589-42.906-15.821-92.621-14.899-150.221 0.205-13.619 0.512-27.904 0.512-42.701v-47.309h102.4v47.309c0 15.411-0.307 30.208-0.512 44.39-0.717 43.52-1.28 81.51 6.093 106.189 8.192 6.502 27.904 16.896 41.114 21.197 7.014 2.304 13.619 4.608 18.893 6.912 21.606 9.011 44.698 19.2 67.789 29.594 27.494 12.186 55.706 24.678 81.306 35.277l29.491 11.981 2.816 39.68c0.922 10.598 1.382 22.682 0.512 30.822l-2.816 15.616-8.090 11.11c-1.126 1.485-2.406 2.97-3.635 5.376-7.475 14.694-17.306 43.008-19.2 60.211-1.382 12.288-0.819 24.576-0.41 36.403 0.307 6.912 0.512 13.875 0.512 20.48 0 7.578-0.205 15.104-0.614 23.808-0.358 12.288-0.666 24.013 0.41 32.717 4.813 34.406 37.837 64.666 74.906 68.864 41.933 4.403 76.595-9.062 95.59-36.966 12.134-17.818 12.749-43.827 12.749-88.422 0-6.912 0.205-13.824 0.512-22.323 0.307-11.008 0.819-22.323-0.307-33.075-2.714-26.317-14.541-50.381-26.726-72.602l-6.4-11.571v-77.005l42.701-19.098c42.803-19.2 93.286-41.779 138.291-60.723 5.478-2.406 12.186-4.71 20.275-7.322 18.483-6.195 27.494-10.598 31.59-13.107 9.626-30.31 17.51-98.202 17.51-155.187v-50.483h102.4v50.483c0 45.875-5.683 146.79-27.29 199.782-14.592 35.942-54.784 53.453-93.286 66.15z"/>
            <glyph unicode="&#xe601;" glyph-name="uniE601" data-tags="uniE601"
                   d="M665.805 391.834c-3.84 1.28-7.526 2.458-10.701 3.738-33.69 14.285-70.554 30.618-106.291 46.592 11.469 23.706 21.555 51.046 24.832 82.483 1.434 14.541 1.178 29.594 0.666 45.978-0.154 5.478-0.307 10.957-0.307 16.435 0 49.51 0 96.205-28.979 138.496-33.894 49.818-90.522 78.387-155.29 78.387-8.294 0-16.896-0.512-26.061-1.434-80.077-9.011-145.869-71.475-156.467-148.48-2.253-16.435-1.69-32.256-1.126-48.998 0.154-5.939 0.41-11.878 0.41-17.92 0-5.018-0.205-10.24-0.358-15.616-0.512-13.875-1.178-31.078 0.87-49.152 2.918-25.856 13.466-58.214 23.552-80.64-14.182-6.093-28.621-12.493-42.803-18.842-21.299-9.472-42.547-18.944-62.515-27.341-3.021-1.229-6.758-2.355-11.674-4.045-3.174-1.075-78.643-26.419-96.154-71.834-15.718-40.653-14.95-87.757-14.080-142.234 0.205-12.954 0.41-26.47 0.41-40.499v-44.851h97.075v44.851c0 14.541-0.256 28.621-0.461 42.035-0.666 41.267-1.28 77.261 5.786 100.659 7.782 6.144 26.368 16.026 38.963 20.122 6.554 2.202 12.851 4.301 17.92 6.502 20.429 8.55 42.291 18.227 64.256 28.058 26.010 11.571 52.736 23.45 77.005 33.434l27.904 11.418 2.714 37.581c0.819 10.086 1.331 21.453 0.461 29.184l-2.714 14.643-7.68 10.547c-1.075 1.382-2.253 2.918-3.43 5.12-7.066 13.926-16.333 40.755-18.176 57.088-1.331 11.571-0.717 23.245-0.307 34.458 0.256 6.605 0.461 13.158 0.461 19.405 0 7.219-0.205 14.336-0.563 22.528-0.358 11.725-0.717 22.784 0.358 31.027 4.506 32.666 35.789 61.338 70.963 65.331 39.68 4.147 72.55-8.653 90.573-35.072 11.52-16.896 12.083-41.574 12.083-83.866 0-6.502 0.205-13.056 0.461-21.094 0.307-10.445 0.768-21.094-0.307-31.386-2.56-24.832-13.722-47.77-25.293-68.762l-6.093-10.906v-73.062l40.499-18.074c40.55-18.125 88.371-39.578 131.021-57.549 5.274-2.304 11.571-4.403 19.251-6.912 17.51-5.837 26.061-10.035 29.901-12.442 9.165-28.672 16.589-93.030 16.589-146.995v-47.923h97.024v47.923c0 43.52-5.376 139.059-25.805 189.286-13.824 34.099-51.917 50.637-88.371 62.618zM1003.674 466.074c-9.318 22.989-34.97 34.15-59.597 42.24-2.611 0.87-5.12 1.587-7.27 2.611-22.682 9.574-47.514 20.48-71.629 31.283 7.731 16.026 14.541 34.458 16.742 55.654 0.973 9.779 0.819 19.917 0.461 30.976-0.102 3.686-0.205 7.424-0.205 11.11 0 33.28 0 64.819-19.558 93.286-22.784 33.536-60.979 52.787-104.653 52.787-5.53 0-11.366-0.41-17.562-1.024-53.914-6.093-98.304-48.179-105.421-100.096-1.536-11.059-1.178-21.709-0.819-32.973 0.102-3.994 0.256-8.038 0.256-12.032 0-3.43-0.102-6.912-0.256-10.496-0.358-9.421-0.768-20.992 0.614-33.126 2.202-19.61 10.854-44.698 18.33-59.648-0.154-0.512 54.682-21.146 69.427-37.325 0.512 13.875 0 50.995 0 50.995l-8.294 11.366c-0.717 0.973-1.485 1.946-2.253 3.43-4.813 9.421-11.008 27.443-12.288 38.502-0.922 7.782-0.512 15.667-0.205 23.245 0.154 4.352 0.307 8.858 0.307 13.056 0 4.813-0.154 9.626-0.358 15.258-0.205 7.834-0.461 15.309 0.256 20.838 3.021 21.965 24.115 41.318 47.821 44.032 26.726 2.765 48.896-5.888 61.030-23.654 7.731-11.418 8.141-28.006 8.141-56.525 0-4.403 0.102-8.858 0.307-14.234 0.154-7.014 0.512-14.182-0.205-21.146-1.741-16.742-9.267-32.205-17.050-46.285l-4.096-7.475 0.41-52.941 26.88-8.397c27.341-12.186 59.546-26.675 88.269-38.758 3.584-1.485 7.834-3.021 13.005-4.659 11.776-3.942 17.562-6.81 20.173-8.448 6.195-19.251 11.162-62.669 11.162-99.072v-32.256h65.382v32.256c0.154 29.389-3.533 93.798-17.254 127.642z"/>
            <glyph unicode="&#xe602;" glyph-name="uniE602" data-tags="uniE602"
                   d="M665.805 391.834c-3.84 1.28-7.526 2.458-10.701 3.738-33.69 14.285-70.554 30.618-106.291 46.592 11.469 23.706 21.555 51.046 24.832 82.483 1.434 14.541 1.178 29.594 0.666 45.978-0.154 5.478-0.307 10.957-0.307 16.435 0 49.51 0 96.205-28.979 138.496-33.894 49.818-90.522 78.387-155.29 78.387-8.294 0-16.896-0.512-26.061-1.434-80.077-9.011-145.869-71.475-156.467-148.48-2.253-16.435-1.69-32.256-1.126-48.998 0.154-5.939 0.41-11.878 0.41-17.92 0-5.018-0.205-10.24-0.358-15.616-0.512-13.875-1.178-31.078 0.87-49.152 2.918-25.856 13.466-58.214 23.552-80.64-14.182-6.093-28.621-12.493-42.803-18.842-21.299-9.472-42.547-18.944-62.515-27.341-3.021-1.229-6.758-2.355-11.674-4.045-3.174-1.075-78.643-26.419-96.154-71.834-15.718-40.653-14.95-87.757-14.080-142.234 0.205-12.954 0.41-26.47 0.41-40.499v-44.851h97.075v44.851c0 14.541-0.256 28.621-0.461 42.035-0.666 41.267-1.28 77.261 5.786 100.659 7.782 6.144 26.368 16.026 38.963 20.122 6.554 2.202 12.851 4.301 17.92 6.502 20.429 8.55 42.291 18.227 64.256 28.058 26.010 11.571 52.736 23.45 77.005 33.434l27.904 11.418 2.714 37.581c0.819 10.086 1.331 21.453 0.461 29.184l-2.714 14.643-7.68 10.547c-1.075 1.382-2.253 2.918-3.43 5.12-7.066 13.926-16.333 40.755-18.176 57.088-1.331 11.571-0.717 23.245-0.307 34.458 0.256 6.605 0.461 13.158 0.461 19.405 0 7.219-0.205 14.336-0.563 22.528-0.358 11.725-0.717 22.784 0.358 31.027 4.506 32.666 35.789 61.338 70.963 65.331 39.68 4.147 72.55-8.653 90.573-35.072 11.52-16.896 12.083-41.574 12.083-83.866 0-6.502 0.205-13.056 0.461-21.094 0.307-10.445 0.768-21.094-0.307-31.386-2.56-24.832-13.722-47.77-25.293-68.762l-6.093-10.906v-73.062l40.499-18.074c40.55-18.125 88.371-39.578 131.021-57.549 5.274-2.304 11.571-4.403 19.251-6.912 17.51-5.837 26.061-10.035 29.901-12.442 9.165-28.672 16.589-93.030 16.589-146.995v-47.923h97.024v47.923c0 43.52-5.376 139.059-25.805 189.286-13.824 34.099-51.917 50.637-88.371 62.618zM1003.674 466.074c-9.318 22.989-34.97 34.15-59.597 42.24-2.611 0.87-5.12 1.587-7.27 2.611-22.682 9.574-47.514 20.48-71.629 31.283 7.731 16.026 14.541 34.458 16.742 55.654 0.973 9.779 0.819 19.917 0.461 30.976-0.102 3.686-0.205 7.424-0.205 11.11 0 33.28 0 64.819-19.558 93.286-22.784 33.536-60.979 52.787-104.653 52.787-5.53 0-11.366-0.41-17.562-1.024-53.914-6.093-98.304-48.179-105.421-100.096-1.536-11.059-1.178-21.709-0.819-32.973 0.102-3.994 0.256-8.038 0.256-12.032 0-3.43-0.102-6.912-0.256-10.496-0.358-9.421-0.768-20.992 0.614-33.126 2.202-19.61 10.854-44.698 18.33-59.648-0.154-0.512 54.682-21.146 69.427-37.325 0.512 13.875 0 50.995 0 50.995l-8.294 11.366c-0.717 0.973-1.485 1.946-2.253 3.43-4.813 9.421-11.008 27.443-12.288 38.502-0.922 7.782-0.512 15.667-0.205 23.245 0.154 4.352 0.307 8.858 0.307 13.056 0 4.813-0.154 9.626-0.358 15.258-0.205 7.834-0.461 15.309 0.256 20.838 3.021 21.965 24.115 41.318 47.821 44.032 26.726 2.765 48.896-5.888 61.030-23.654 7.731-11.418 8.141-28.006 8.141-56.525 0-4.403 0.102-8.858 0.307-14.234 0.154-7.014 0.512-14.182-0.205-21.146-1.741-16.742-9.267-32.205-17.050-46.285l-4.096-7.475 0.41-52.941 26.88-8.397c27.341-12.186 59.546-26.675 88.269-38.758 3.584-1.485 7.834-3.021 13.005-4.659 11.776-3.942 17.562-6.81 20.173-8.448 6.195-19.251 11.162-62.669 11.162-99.072v-32.256h65.382v32.256c0.154 29.389-3.533 93.798-17.254 127.642z"/>
            <glyph unicode="&#xe603;" glyph-name="uniE603" data-tags="uniE603" horiz-adv-x="1040"
                   d="M904.457 393.364c-3.682 1.233-7.268 2.363-10.43 3.638-32.718 13.889-68.597 29.817-103.342 45.362 11.143 23.062 20.91 49.761 24.17 80.377 1.365 14.179 1.086 28.827 0.616 44.747-0.193 5.391-0.375 10.726-0.375 16.066 0 48.202 0 93.709-28.188 134.914-32.958 48.432-87.997 76.219-151.031 76.219-8.029 0-16.432-0.472-25.401-1.366-77.899-8.786-141.867-69.657-152.214-144.692-2.221-15.969-1.654-31.329-1.135-47.683 0.193-5.765 0.375-11.58 0.375-17.393 0-4.871-0.193-10.020-0.375-15.219-0.422-13.464-1.086-30.24 0.845-47.867 2.883-25.189 13.075-56.663 22.947-78.539-13.74-6.003-27.803-12.198-41.591-18.385-20.73-9.209-41.409-18.433-60.858-26.602-2.925-1.233-6.52-2.363-11.334-3.965-3.113-0.992-76.529-25.709-93.576-69.935-15.345-39.598-14.585-85.482-13.74-138.6 0.193-12.57 0.422-25.756 0.422-39.416v-43.707h94.421v43.707c0 14.179-0.237 27.835-0.422 40.926-0.663 40.213-1.231 75.276 5.616 98.007 7.558 6.003 25.726 15.643 37.908 19.655 6.424 2.079 12.505 4.158 17.421 6.284 19.919 8.314 41.217 17.768 62.513 27.364 25.353 11.246 51.369 22.82 74.973 32.561l27.195 11.109 2.595 36.624c0.803 9.825 1.277 20.935 0.422 28.404l-2.546 14.324-7.462 10.248c-1.038 1.366-2.221 2.792-3.357 4.963-6.894 13.563-15.96 39.694-17.705 55.623-1.277 11.289-0.712 22.687-0.375 33.553 0.283 6.43 0.47 12.806 0.47 18.905 0 7.043-0.193 13.937-0.567 21.974-0.326 11.385-0.616 22.21 0.375 30.192 4.443 31.799 34.89 59.734 69.068 63.651 38.67 4.012 70.625-8.46 88.143-34.17 11.191-16.447 11.71-40.499 11.71-81.658 0-6.333 0.193-12.718 0.47-20.561 0.283-10.164 0.757-20.561-0.283-30.576-2.45-24.197-13.366-46.499-24.595-66.961l-5.905-10.684v-71.119l39.371-17.575c39.468-17.72 86.018-38.605 127.52-56.094 5.048-2.223 11.239-4.302 18.699-6.707 17.095-5.668 25.401-9.778 29.181-12.1 8.826-27.93 16.099-90.639 16.099-143.18v-46.691h94.421v46.691c0 42.341-5.242 135.434-25.16 184.337-13.456 33.176-50.512 49.29-86.018 61.002zM337.173 668.889h-104.261v104.357h-104.261v-104.357h-104.261v-100.284h104.261v-108.428h107.982v108.428h100.539z"/>
            <glyph unicode="&#xe604;" glyph-name="uniE604" data-tags="uniE604"
                   d="M902.339 388.32c-4.022 1.347-7.938 2.579-11.393 3.974-35.737 15.171-74.929 32.57-112.881 49.548 12.172 25.19 22.839 54.354 26.4 87.796 1.492 15.486 1.187 31.488 0.673 48.875-0.211 5.889-0.409 11.715-0.409 17.546 0 52.651 0 102.358-30.792 147.365-35.999 52.902-96.12 83.254-164.97 83.254-8.77 0-17.948-0.515-27.746-1.492-85.087-9.598-154.961-76.086-166.263-158.046-2.427-17.443-1.807-34.221-1.24-52.084 0.211-6.298 0.409-12.648 0.409-18.998 0-5.321-0.211-10.945-0.409-16.622-0.461-14.707-1.187-33.032 0.924-52.283 3.147-27.514 14.281-61.892 25.064-85.789-15.007-6.557-30.37-13.321-45.429-20.081-22.642-10.060-45.23-20.134-66.476-29.058-3.196-1.347-7.121-2.579-12.378-4.332-3.402-1.083-83.593-28.082-102.213-76.389-16.761-43.251-15.93-93.371-15.007-151.392 0.211-13.731 0.461-28.134 0.461-43.052v-47.739h103.136v47.739c0 15.486-0.261 30.405-0.461 44.703-0.725 43.924-1.345 82.224 6.132 107.051 8.255 6.557 28.101 17.084 41.407 21.467 7.016 2.271 13.662 4.542 19.029 6.865 21.758 9.083 45.021 19.407 68.283 29.89 27.693 12.283 56.111 24.926 81.892 35.567l29.703 12.133 2.835 40.003c0.875 10.733 1.397 22.867 0.461 31.026l-2.782 15.644-8.15 11.196c-1.134 1.492-2.427 3.050-3.666 5.421-7.53 14.813-17.433 43.357-19.338 60.756-1.397 12.331-0.778 24.78-0.409 36.65 0.307 7.024 0.514 13.987 0.514 20.649 0 7.693-0.211 15.222-0.62 24.002-0.356 12.436-0.673 24.26 0.409 32.979 4.853 34.735 38.111 65.246 75.443 69.524 42.238 4.383 77.144-9.242 96.279-37.323 12.225-17.964 12.792-44.236 12.792-89.195 0-6.918 0.211-13.889 0.514-22.458 0.307-11.1 0.829-22.458-0.307-33.396-2.677-26.431-14.598-50.79-26.863-73.141l-6.449-11.668v-77.683l43.005-19.196c43.108-19.355 93.958-42.168 139.288-61.272 5.514-2.429 12.277-4.7 20.425-7.327 18.673-6.192 27.746-10.681 31.873-13.216 9.64-30.508 17.585-99.004 17.585-156.395v-51.001h103.136v51.001c0 46.248-5.723 147.933-27.482 201.348-14.699 36.236-55.174 53.84-93.958 66.632zM309.652 668.648h-309.416v-105.369h309.416z"/>
            <glyph unicode="&#xe605;" glyph-name="uniE605" data-tags="uniE605"
                   d="M588.789 217.6c0-42.415-34.385-76.8-76.8-76.8s-76.8 34.385-76.8 76.8c0 42.415 34.385 76.8 76.8 76.8s76.8-34.385 76.8-76.8zM767.989 499.2v204.8c0 141.158-114.842 256-256 256s-256-114.842-256-256v-204.8c-56.525 0-102.4-45.875-102.4-102.4v-358.4c0-56.474 45.875-102.4 102.4-102.4h512c56.525 0 102.4 45.926 102.4 102.4v358.4c0 56.525-45.875 102.4-102.4 102.4zM358.389 704c0 84.685 68.915 153.6 153.6 153.6s153.6-68.915 153.6-153.6v-204.8h-307.2v204.8zM255.989 38.4v358.4h512l0.102-358.4h-512.102z"/>
            <glyph unicode="&#xe606;" glyph-name="uniE606" data-tags="uniE606"
                   d="M767.989 499.2h-409.6v204.8c0 84.685 68.915 153.6 153.6 153.6s153.6-68.915 153.6-153.6v-51.2h102.4v51.2c0 141.158-114.842 256-256 256s-256-114.842-256-256v-204.8c-56.525 0-102.4-45.875-102.4-102.4v-358.4c0-56.474 45.875-102.4 102.4-102.4h512c56.525 0 102.4 45.926 102.4 102.4v358.4c0 56.525-45.875 102.4-102.4 102.4zM255.989 38.4v358.4h512l0.102-358.4h-512.102zM588.789 217.6c0-42.415-34.385-76.8-76.8-76.8s-76.8 34.385-76.8 76.8c0 42.415 34.385 76.8 76.8 76.8s76.8-34.385 76.8-76.8z"/>
            <glyph unicode="&#xe607;" glyph-name="uniE607" data-tags="uniE607"
                   d="M912.449 798.385h-800.895c-55.211 0-100.112-48.354-100.112-107.813v-485.158c0-59.459 44.9-107.813 100.112-107.813h800.895c55.211 0 100.112 48.354 100.112 107.813v485.158c0 59.459-44.9 107.813-100.112 107.813v0zM817.994 690.573l-305.992-205.922-305.992 205.922h611.984zM111.555 205.415v421.602l373.917-251.689c8.109-5.445 17.319-8.194 26.53-8.194s18.42 2.749 26.53 8.194l373.917 251.743 0.050-421.655h-800.945z"/>
            <glyph unicode="&#xe608;" glyph-name="uniE608" data-tags="uniE608"
                   d="M438.848-64c-141.263 0-243.81 112.786-243.81 268.19v414.476c0 194.609 136.241 341.333 316.952 341.333s316.952-146.725 316.952-341.333v-341.333h-97.524v341.333c0 141.263-92.306 243.81-219.429 243.81s-219.429-102.546-219.429-243.81v-414.476c0-84.992 45.251-170.667 146.286-170.667s146.286 85.675 146.286 170.667v365.714c0 29.355-7.119 97.524-73.143 97.524s-73.143-68.169-73.143-97.524v-341.333h-97.524v341.333c0 116.687 68.608 195.048 170.667 195.048s170.667-78.36 170.667-195.048v-365.714c0-155.404-102.546-268.19-243.81-268.19z"/>
            <glyph unicode="&#xe609;" glyph-name="uniE609" data-tags="uniE609" horiz-adv-x="1264"
                   d="M708.642 595.821h-315.743l157.871 157.871-97.348 97.287-324.078-324.005 324.078-324.005 97.348 97.287-157.871 157.871h315.743c151.809 0 275.398-123.515 275.398-275.398v-137.697h137.697v137.697c0 227.819-185.273 413.095-413.095 413.095z"/>
            <glyph unicode="&#xe60a;" glyph-name="uniE60A" data-tags="uniE60A"
                   d="M682.658 812.724v-126.464c101.888-59.164 170.667-169.188 170.667-295.14 0-188.245-153.088-341.333-341.333-341.333s-341.333 153.088-341.333 341.333c0 126.009 68.779 235.975 170.667 295.14v126.464c-166.571-67.698-284.444-231.026-284.444-421.604 0-250.937 204.174-455.111 455.111-455.111s455.111 204.174 455.111 455.111c0 190.578-117.874 353.906-284.444 421.604zM455.102 960.009h113.778v-455.111h-113.778v455.111z"/>
            <glyph unicode="&#xe60b;" glyph-name="uniE60B" data-tags="uniE60B"
                   d="M1024 345.601v204.8h-115.917c-11.878 46.131-31.283 89.242-57.447 127.642l77.722 77.722-108.595 108.595-77.722-77.722c-38.349 26.163-81.51 45.466-127.642 57.498v115.866h-204.8v-115.866c-46.131-12.032-89.293-31.334-127.642-57.447l-77.722 77.67-108.595-108.595 77.722-77.722c-26.163-38.349-45.568-81.459-57.447-127.642h-115.917v-204.8h115.917c11.878-46.234 31.283-89.293 57.447-127.642l-77.722-77.722 108.595-108.646 77.722 77.722c38.349-26.112 81.51-45.466 127.642-57.447v-115.866h204.8v115.866c46.131 11.93 89.293 31.334 127.642 57.447l77.722-77.722 108.595 108.646-77.722 77.722c26.163 38.349 45.568 81.408 57.447 127.642h115.917zM512 140.8c-169.421 0-307.2 137.728-307.2 307.2 0 169.421 137.779 307.2 307.2 307.2s307.2-137.779 307.2-307.2c0-169.421-137.779-307.2-307.2-307.2z"/>
            <glyph unicode="&#xe60c;" glyph-name="uniE60C" data-tags="uniE60C"
                   d="M946.483 446.31l-434.534 434.483-506.778-506.88h200.397v-358.707h612.966v358.707h200.397l-72.448 72.397zM716.288 491.93v-118.067h-0.205v-256.307h-101.274v180.941h-153.6v-180.941h-153.293v374.374h-39.936l244.019 244.019 244.019-244.019h-39.731z"/>
            <glyph unicode="&#xe60d;" glyph-name="uniE60D" data-tags="uniE60D"
                   d="M288 256c52.992 0 96 43.008 96 96 0 17.76-5.184 34.24-13.632 48.512l143.744 180.736c9.44-3.136 19.392-5.248 29.888-5.248 19.264 0 37.056 5.824 52.128 15.552l177.888-143.2c-3.68-10.112-6.016-20.928-6.016-32.352 0-52.992 43.008-96 96-96s96 43.008 96 96-43.008 96-96 96c-18.112 0-34.912-5.312-49.408-14.112l-179.712 144.64c3.072 9.344 5.12 19.104 5.12 29.472 0 52.992-43.008 96-96 96s-96-43.008-96-96c0-19.136 5.76-36.8 15.36-51.744l-142.016-178.56c-10.4 3.872-21.536 6.304-33.344 6.304-52.992 0-96-43.008-96-96s43.008-96 96-96zM960 192h-832v576c0 35.36-28.64 64-64 64s-64-28.64-64-64v-640c0-35.36 28.64-64 64-64h896c35.36 0 64 28.64 64 64s-28.64 64-64 64z"/>
            <glyph unicode="&#xe60e;" glyph-name="uniE60E" data-tags="uniE60E"
                   d="M1006.784 897.728c-3.552 9.952-8.8 19.392-16.704 27.392-0.128 0.096-0.384 0.16-0.64 0.352-0.192 0.192-0.224 0.448-0.352 0.64-8 8-17.504 13.12-27.36 16.672-34.816 16.128-76.992 10.624-105.664-18.016l-198.304-198.304-587.936 107.264-61.536-87.2 463.84-234.144-150.080-151.84-193.952 3.936-44.736-44.672 164.192-136.288 136.256-164.192 44.704 44.736-4 193.984 151.744 150.016 234.176-463.776 87.328 61.6-107.36 587.872 198.304 198.4c28.704 28.608 34.144 70.816 18.080 105.568z"/>
            <glyph unicode="&#xe60f;" glyph-name="uniE60F" data-tags="uniE60F"
                   d="M512 926.413c-204.749 0-371.302-166.605-371.302-371.302 0-175.411 227.021-431.411 296.55-505.702l74.752-79.821 74.752 79.821c69.53 74.291 296.55 330.291 296.55 505.702 0 204.698-166.554 371.302-371.302 371.302zM512 119.398c0 0-268.902 287.078-268.902 435.712 0 148.48 120.422 268.902 268.902 268.902s268.902-120.422 268.902-268.902c0-148.634-268.902-435.712-268.902-435.712zM657.408 584.704c0-80.307-65.101-145.408-145.408-145.408s-145.408 65.101-145.408 145.408c0 80.307 65.101 145.408 145.408 145.408s145.408-65.101 145.408-145.408z"/>
            <glyph unicode="&#xe610;" glyph-name="uniE610" data-tags="uniE610"
                   d="M203.725-11.213v279.962c-92.979 73.114-148.275 174.336-148.275 271.77 0 202.189 204.749 366.746 456.448 366.746 251.802 0 456.653-164.557 456.653-366.797 0-202.445-204.851-367.155-456.653-367.155-6.349 0-23.45-0.922-35.789-1.638l-272.384-182.886zM264.653 351.13c19.098-17.050 42.035-27.443 42.035-27.443l-0.614-142.797 138.035 94.208c0 0 56.013 0.666 67.738 0.666 195.328 0 354.253 118.733 354.253 264.755 0.051 145.766-158.874 264.346-354.202 264.346-195.174 0-354.048-118.579-354.048-264.397 0-65.536 39.782-135.987 106.803-189.338z"/>
            <glyph unicode="&#xe611;" glyph-name="uniE611" data-tags="uniE611"
                   d="M859.853 795.853c80.026-79.974 80.947-208.691 2.099-287.539-2.816-2.816-426.189-426.138-426.189-426.138l-289.638 289.638 417.946 417.894c0 0 5.427 5.427 8.243 8.243 78.797 78.899 207.565 77.926 287.539-2.099zM642.099 578.15c39.936-39.936 104.397-40.397 143.77-1.075 39.424 39.424 38.963 103.885-0.973 143.872-39.936 39.936-104.448 40.346-143.872 0.973-39.322-39.373-38.861-103.834 1.075-143.77zM932.25 868.25c-119.757 119.808-313.702 120.73-432.333 2.099l-8.294-8.243-490.342-490.291 434.432-434.483 498.586 498.586c118.682 118.63 117.709 312.627-2.048 432.333v0z"/>
            <glyph unicode="&#xe612;" glyph-name="uniE612" data-tags="uniE612"
                   d="M961.075 311.91c-83.149 39.219-124.723 67.226-146.125 154.675-8.499 34.714-10.496 63.488-12.544 93.901-2.714 40.090-5.53 81.613-24.064 131.021-18.688 50.381-55.398 88.781-109.466 114.79-1.178 36.506-13.312 69.888-35.482 96.717-29.030 35.226-73.267 55.398-121.549 55.501-48.026-0.102-92.211-20.275-121.293-55.398-22.221-26.88-34.304-60.314-35.584-96.768-53.862-25.907-90.624-64.41-109.466-114.688-18.381-49.51-21.146-90.829-23.91-130.816-2.048-30.618-4.045-59.392-12.646-94.31-21.35-87.398-62.925-115.405-146.074-154.624l-29.389-13.824v-203.008h956.979v203.008l-29.389 13.824zM888.115 197.53h-752.23v36.096c78.285 39.782 143.462 89.6 172.493 208.486 10.752 43.52 13.21 79.718 15.411 111.718 2.406 35.686 4.506 66.509 17.715 101.99 11.827 31.693 38.4 53.402 83.456 68.506l42.394 14.080-8.294 43.93c-4.25 22.477-0.563 42.189 10.394 55.501 19.61 23.706 65.741 23.296 85.043 0 10.957-13.21 14.592-32.922 10.342-55.398l-8.346-43.981 42.445-14.080c45.158-15.104 71.629-36.813 83.456-68.506 13.312-35.584 15.411-66.509 17.869-102.195 2.15-31.898 4.608-68.096 15.258-111.411 29.133-118.989 94.31-168.806 172.595-208.589v-36.147zM514.099-62.566c55.859-0.41 110.899 32.614 116.224 100.403h-232.397c5.274-67.789 60.416-100.813 116.173-100.403z"/>
            <glyph unicode="&#xe613;" glyph-name="uniE613" data-tags="uniE613"
                   d="M512 703.386l90.112-182.733 201.779-29.082-146.125-142.49 9.114-53.043 25.293-147.61-180.224 94.874-180.224-94.874 25.395 147.61 9.114 53.043-146.022 142.438 201.728 29.082 23.859 48.384 66.202 134.4zM512 935.014l-158.054-320.717-353.946-51.098 256.256-249.907-60.57-352.307 316.314 166.502 316.314-166.502-60.518 352.307 256.205 249.907-353.894 51.098-158.106 320.717z"/>
            <glyph unicode="&#xe614;" glyph-name="uniE614" data-tags="uniE614"
                   d="M511.949 308.378c179.507 0 325.069 145.51 325.069 325.018s-145.562 324.966-325.069 324.966c-179.405 0-324.966-145.51-324.966-325.018s145.562-324.966 324.966-324.966zM511.949 855.962c122.726 0 222.669-99.789 222.669-222.618 0-122.675-99.891-222.618-222.669-222.618s-222.566 99.942-222.566 222.618c0 122.829 99.84 222.618 222.566 222.618zM614.4 633.344c0-56.554-45.846-102.4-102.4-102.4s-102.4 45.846-102.4 102.4c0 56.554 45.846 102.4 102.4 102.4s102.4-45.846 102.4-102.4zM1011.968 85.555c-22.426 47.514-79.155 147.098-133.12 172.39-89.702 42.086-157.082-19.61-251.238-44.39-37.222-9.677-75.981-14.797-115.61-14.797s-78.387 5.12-115.61 14.797c-94.157 24.781-161.536 86.477-251.238 44.39-53.965-25.293-110.643-124.877-133.12-172.39-4.608-18.278-1.997-30.925 0-39.424 9.318-56.883 46.592-91.494 98.611-108.493 133.734 0 267.571 0 401.357 0s267.622 0 401.357 0c52.019 16.998 89.293 51.61 98.611 108.493 1.997 8.55 4.608 21.146 0 39.424zM915.968 48.742c-21.914-25.805-59.238-22.323-91.29-22.323-100.147 0-205.875-0.307-312.627-0.512-106.752 0.205-212.48 0.512-312.627 0.512-32.051 0-69.376-3.482-91.29 22.323-21.811 25.805 5.478 49.306 27.187 76.186 21.299 26.317 37.376 54.426 69.018 58.982 37.683 5.581 77.158-22.221 128.102-39.322 57.446-19.302 115.917-30.822 179.661-30.976 63.744 0.205 122.214 11.725 179.661 30.976 50.944 17.101 90.419 44.902 128.102 39.322 31.59-4.608 47.718-32.717 69.018-58.982 21.606-26.88 48.896-50.381 27.085-76.186z"/>
            <glyph unicode="&#xe615;" glyph-name="uniE615" data-tags="uniE615"
                   d="M924.32 472l-354.336 352.128c-14.976 14.912-34.784 21.472-54.432 20.544-1.28 0.032-2.24 0.672-3.52 0.672-1.248 0-2.208-0.672-3.328-0.672-19.68 0.96-39.52-5.408-54.592-20.512l-354.4-352.16c-28.256-28.16-28.256-73.952 0-102.176 28.224-28.192 74.016-28.192 102.112 0l237.92 236.384v-483.296c0-39.904 32.352-72.256 72.288-72.256 39.904 0 72.224 32.352 72.224 72.256v483.264l237.92-236.384c28.224-28.192 73.952-28.192 102.144 0 28.224 28.256 28.224 73.984 0 102.208z"/>
            <glyph unicode="&#xe616;" glyph-name="uniE616" data-tags="uniE616"
                   d="M992.992 941.888c-15.424 10.4-34.976 12.544-52.224 5.664l-404.576-160.416c-7.936-3.328-16.672-5.184-25.824-5.184s-17.952 1.824-25.856 5.184l-401.312 160.416c-17.28 6.88-36.864 4.736-52.224-5.664-15.392-10.4-24.576-27.744-24.576-46.336v-716.096c0-22.88 13.952-43.392 35.168-51.968l447.040-178.656c0 0 9.152-2.88 10.912-3.2 3.52-0.768 7.232-1.184 10.88-1.184s7.264 0.416 10.88 1.184c1.696 0.288 10.912 3.296 10.912 3.296l447.008 178.592c21.248 8.544 35.2 29.056 35.2 51.968l3.2 716.064c0 18.592-9.216 35.936-24.608 46.336zM462.848 74.528c0-0.768-0.064-1.568-0.192-2.4-1.088-11.52-10.88-20.608-22.624-20.608-2.336 0-4.576 0.416-6.656 1.024-0.032 0-0.064 0-0.128 0.096-1.088 0.288-2.112 0.672-3.136 1.312l-311.584 126.208c-1.504 0.48-3.008 1.088-4.48 1.792-14.752 6.816-25.248 21.376-26.4 38.592-0.096 1.088-0.128 2.080-0.128 3.2 0 0.992 0.032 2.080 0.128 3.072v581.76c-0.096 0.8-0.128 1.536-0.128 2.336s0.032 1.6 0.128 2.4c1.152 11.616 10.88 20.608 22.624 20.608 2.4 0 4.672-0.32 6.816-1.056 0.064 0 0.16-0.064 0.288-0.096 0.96-0.32 1.888-0.672 2.816-1.088l312.224-126.624c1.152-0.384 2.208-0.832 3.296-1.344 15.136-6.784 25.888-21.536 26.976-38.88 0.128-1.056 0.192-2.080 0.192-3.168s-0.064-2.112-0.192-3.168v-581.6c0.096-0.768 0.16-1.568 0.16-2.368zM933.088 223.52c0-0.992-0.032-2.080-0.128-3.072-1.152-17.216-11.648-31.84-26.4-38.592-1.472-0.704-2.976-1.312-4.48-1.792l-311.584-126.336c-1.024-0.48-2.016-0.896-3.136-1.312-0.064 0-0.128 0-0.128 0-2.080-0.704-4.352-0.992-6.656-0.992-11.776 0-21.504 9.056-22.656 20.576-0.096 0.8-0.128 1.6-0.128 2.432 0 0.768 0.032 1.472 0.128 2.272v581.664c-0.096 1.056-0.128 2.080-0.128 3.2 0 1.056 0.032 2.080 0.128 3.104 1.152 17.472 11.968 32.256 27.072 38.912 1.024 0.512 2.112 0.928 3.2 1.344l315.52 129.536c0.896 0.448 1.824 0.768 2.848 1.088 0.032 0.064 0.16 0.096 0.224 0.096 2.112 0.704 4.448 1.056 6.784 1.056 11.808 0 21.504-8.992 22.688-20.608 0.096-0.768 0.096-1.6 0.096-2.368 0-0.8 0-1.568-0.096-2.368l-3.296-584.64c0.096-0.992 0.128-2.080 0.128-3.2zM835.616 400.096c-2.624 0-5.184-0.48-7.488-1.376l-1.632-0.608-175.744-70.24c-9.632-4.384-16.512-13.856-17.216-24.896v-26.304c0.576-11.616 10.208-20.896 22.048-20.896 3.040 0 5.952 0.608 8.608 1.696v0l177.888 71.104c8.416 4.448 14.432 12.896 15.52 22.784v29.248c-1.344 11.040-10.656 19.488-21.984 19.488zM835.616 632.512c-2.624 0-5.184-0.512-7.488-1.344l-1.632-0.64-175.744-70.24c-9.632-4.352-16.512-13.856-17.216-24.896v-26.24c0.576-11.648 10.208-20.928 22.048-20.928 3.040 0 5.952 0.608 8.608 1.696v0l177.888 71.104c8.416 4.448 14.432 12.896 15.52 22.752v29.248c-1.344 10.976-10.656 19.488-21.984 19.488zM369.984 327.872l-2.752 1.088-174.624 69.76c-2.336 0.896-4.896 1.376-7.488 1.376-11.328 0-20.672-8.448-21.984-19.488v-29.248c1.088-9.888 7.104-18.336 15.488-22.784l5.856-2.304 172.064-68.8c2.592-1.088 5.536-1.696 8.608-1.696 11.808 0 21.536 9.28 22.016 20.896v26.336c-0.704 11.008-7.584 20.48-17.184 24.864zM369.984 560.256l-2.752 1.088-174.624 69.792c-2.336 0.832-4.896 1.344-7.488 1.344-11.328 0-20.672-8.512-21.984-19.488v-29.248c1.088-9.856 7.104-18.304 15.488-22.752l5.856-2.304 172.064-68.8c2.592-1.088 5.536-1.696 8.608-1.696 11.808 0 21.536 9.28 22.016 20.928v26.24c-0.704 11.072-7.584 20.544-17.184 24.896z"/>
            <glyph unicode="&#xe617;" glyph-name="uniE617" data-tags="uniE617"
                   d="M908.672 451.296c0.96 19.68-5.408 39.52-20.512 54.592l-352.16 354.4c-28.16 28.256-73.952 28.256-102.176 0-28.192-28.224-28.192-74.016 0-102.112l236.384-237.92h-483.296c-39.904 0-72.256-32.352-72.256-72.288 0-39.904 32.352-72.224 72.256-72.224h483.296l-236.384-237.92c-28.192-28.224-28.192-73.952 0-102.144 28.256-28.224 73.984-28.224 102.176 0l352.128 354.336c14.912 14.976 21.472 34.784 20.544 54.432 0.032 1.28 0.672 2.24 0.672 3.52 0 1.248-0.672 2.208-0.672 3.328z"/>
            <glyph unicode="&#xe618;" glyph-name="uniE618" data-tags="uniE618"
                   d="M921.6-62.362h-819.2v1020.723h819.2v-1020.723zM204.8 40.038h614.4v815.923h-614.4v-815.923zM302.643 718.438h432.845v-102.4h-432.845v102.4zM302.643 500.275h432.845v-102.4h-432.845v102.4zM302.643 287.283h432.845v-102.4h-432.845v102.4z"/>
            <glyph unicode="&#xe619;" glyph-name="uniE619" data-tags="uniE619"
                   d="M837.088 520.256h-483.264l236.384 237.92c28.192 28.224 28.192 73.952 0 102.144-28.256 28.224-73.984 28.224-102.176 0l-352.16-354.336c-14.912-14.976-21.472-34.784-20.544-54.432-0.032-1.28-0.672-2.24-0.672-3.52 0-1.248 0.672-2.208 0.672-3.328-0.96-19.68 5.408-39.52 20.512-54.592l352.16-354.4c28.16-28.256 73.952-28.256 102.176 0 28.192 28.224 28.192 74.016 0 102.112l-236.384 237.92h483.296c39.904 0 72.256 32.352 72.256 72.288 0 39.904-32.352 72.224-72.256 72.224z"/>
            <glyph unicode="&#xe61a;" glyph-name="uniE61A" data-tags="uniE61A"
                   d="M467.474 266.093l-102.088 102.088-62.954-62.954 165.042-165.087 254.086 254.13-62.954 62.954zM823.648 737.4h-89.043v89.043h-50.844c-19.901 76.533-89.043 133.565-171.765 133.565s-151.864-57.032-171.765-133.565h-50.844v-89.043h-89.043c-49.107 0-89.043-39.981-89.043-89.043v-623.304c0-49.107 39.936-89.043 89.043-89.043h623.304c49.107 0 89.043 39.936 89.043 89.043v623.304c0 49.063-39.936 89.043-89.043 89.043zM511.996 870.966c32.902 0 61.663-17.898 77.067-44.522h-154.179c15.449 26.624 44.21 44.522 77.112 44.522zM378.43 737.4h267.13v-89.043h-267.13v89.043zM823.648 25.052h-623.304v623.304h89.043v-89.043h445.217v89.043h89.043v-623.304z"/>
            <glyph unicode="&#xe61b;" glyph-name="uniE61B" data-tags="uniE61B"
                   d="M924.288 526.176c-28.224 28.192-74.016 28.192-102.112 0l-237.92-236.384v483.296c0 39.904-32.352 72.256-72.288 72.256-39.904 0-72.192-32.352-72.192-72.256v-483.296l-237.92 236.384c-28.224 28.192-73.952 28.192-102.176 0-28.192-28.256-28.192-73.984 0-102.176l354.368-352.128c14.976-14.912 34.784-21.472 54.4-20.544 1.28-0.032 2.24-0.672 3.52-0.672 1.248 0 2.208 0.672 3.328 0.672 19.68-0.96 39.52 5.408 54.592 20.512l354.4 352.16c28.256 28.16 28.256 73.952 0 102.176z"/>
            <glyph unicode="&#xe61c;" glyph-name="uniE61C" data-tags="uniE61C"
                   d="M797.44 747.296h-350.688c-22.208-0.384-40.128-18.496-40.128-40.864v-59.2c0-21.088 15.936-38.4 36.384-40.672h358.176c20.224 2.208 36.032 19.2 36.384 39.968v60.608c-0.352 22.016-18.144 39.776-40.128 40.16zM799.584 289.408h-354.912c-21.024-1.376-37.728-18.72-38.048-40.064v-60.48c0.384-22.208 18.528-40.16 40.832-40.16h349.312c21.664 0 39.36 16.8 40.768 38.048v64.64c-1.312 20.416-17.6 36.704-37.952 38.016zM798.784 518.336h-353.408c-21.6-1.088-38.752-18.976-38.752-40.8v-59.072c0-21.824 17.024-39.616 38.496-40.8h355.904c20.544 2.112 36.544 19.488 36.544 40.64v59.264c0 21.792-17.152 39.68-38.784 40.768zM256.768 747.296c-38.816 0-70.336-31.52-70.336-70.336 0-38.848 31.52-70.368 70.336-70.368s70.304 31.52 70.304 70.368c0.032 38.784-31.488 70.336-70.304 70.336zM256.768 518.336c-38.816 0-70.336-31.488-70.336-70.336s31.52-70.336 70.336-70.336 70.304 31.488 70.304 70.336-31.488 70.336-70.304 70.336zM256.768 289.408c-38.816 0-70.336-31.456-70.336-70.336 0-38.848 31.52-70.336 70.336-70.336s70.304 31.488 70.304 70.336c0.032 38.88-31.488 70.336-70.304 70.336z"/>
            <glyph unicode="&#xe61d;" glyph-name="uniE61D" data-tags="uniE61D"
                   d="M976.736 136.384l-279.744 280.32c-1.376 1.056-2.688 2.208-3.968 3.488-1.28 1.312-2.432 2.56-3.488 3.968-11.36 15.008-10.176 36.576 3.488 50.272l-0.256 0.224 290.976 290.592c36.096 42.944 33.92 107.232-6.496 147.616-41.024 41.056-106.56 42.656-149.504 4.928l-10.112-10.176-277.024-277.088c-0.096-0.16-0.352-0.352-0.512-0.576-0.288-0.224-0.544-0.608-0.736-0.832-0.512-0.48-1.024-0.928-1.472-1.408-0.096 0-0.096 0-0.096 0-14.464-13.152-36.736-13.152-51.328 0-0.48 0.48-0.96 0.96-1.376 1.408-0.48 0.48-0.928 0.928-1.376 1.408l-288.8 289.44c-42.976 36-107.168 33.824-147.648-6.592-40.992-41.056-42.656-106.56-4.864-149.536l10.208-10.176 277.12-277.12c0 0 0 0 0.032-0.096 0.48-0.384 1.024-0.832 1.44-1.312 0.608-0.576 1.056-1.184 1.6-1.76 12.896-14.528 12.832-36.416-0.032-50.912-0.032 0-0.128-0.16-0.192-0.16-0.48-0.48-0.864-1.024-1.344-1.408-0.448-0.48-0.864-0.8-1.28-1.248-0.128 0-0.128-0.128-0.192-0.128l-289.152-289.376c-36.384-42.624-34.368-106.88 5.92-147.168 42.464-42.464 111.040-42.56 153.536-0.256l0.384 0.416 283.904 283.392c0.16 0.16 0.32 0.352 0.512 0.576 0.416 0.48 0.96 0.928 1.408 1.344 15.072 13.632 38.304 13.152 52.864-1.344v0l290.624-290.688c42.72-36.352 106.88-34.4 147.2 5.952 42.4 42.432 42.528 111.136 0.192 153.664l-0.416 0.352z"/>
            <glyph unicode="&#xe61e;" glyph-name="uniE61E" data-tags="uniE61E"
                   d="M243.507 958.618h102.4v-153.6h-102.4v153.6zM691.2 958.618h102.4v-152.525h-102.4v152.525zM846.029 849.818v-105.574h-200.806v105.574h-256.922v-105.574h-183.501v105.574h-128v-912.486h870.4v912.486h-101.171zM844.8 39.731h-665.6v498.842h665.6v-498.842zM256.205 443.187h102.4v-102.4h-102.4v102.4zM459.827 443.187h102.4v-102.4h-102.4v102.4zM665.293 443.187h102.4v-102.4h-102.4v102.4zM256.205 237.517h102.4v-102.4h-102.4v102.4zM459.827 237.517h102.4v-102.4h-102.4v102.4z"/>
            <glyph unicode="&#xe61f;" glyph-name="uniE61F" data-tags="uniE61F"
                   d="M604.723 560.23h185.498v-185.446h-185.498v-432.742h-185.446v432.742h-185.498v185.446h185.498v77.619c0 73.523 23.142 166.349 69.12 217.139 45.978 50.893 103.424 76.237 172.288 76.237h129.536v-185.498h-129.792c-30.822 0-55.654-24.832-55.654-55.552v-129.946z"/>
            <glyph unicode="&#xe620;" glyph-name="uniE620" data-tags="uniE620"
                   d="M940.595 639.488v79.155c0 103.424-84.173 187.546-187.597 187.546h-562.586c-103.373 0-187.494-84.122-187.494-187.546v-550.81c0-98.15 79.872-177.971 177.971-177.971h662.221c98.15 0 178.022 79.872 178.022 177.971v323.072c0 62.106-32.102 116.736-80.538 148.582zM105.318 718.643c0 46.95 38.195 85.146 85.094 85.146h562.586c47.002 0 85.197-38.195 85.197-85.146v-49.818h-657.306c-27.136 0.051-52.582-6.554-75.571-17.459v67.277zM843.11 92.211h-662.221c-41.677 0-75.571 33.946-75.571 75.571v323.072c0 41.677 33.894 75.622 75.571 75.622h662.221c41.677 0 75.622-33.946 75.622-75.622v-110.336h-165.734v-102.4h165.683v-110.336c0.051-41.626-33.843-75.571-75.571-75.571z"/>
            <glyph unicode="&#xe621;" glyph-name="uniE621" data-tags="uniE621"
                   d="M927.936 687.008l-68.288 68.288c-12.608 12.576-32.96 12.576-45.536 0l-409.44-409.44-194.752 196.16c-12.576 12.576-32.928 12.576-45.536 0l-68.288-68.288c-12.576-12.608-12.576-32.96 0-45.536l285.568-287.488c12.576-12.576 32.96-12.576 45.536 0l500.736 500.768c12.576 12.544 12.576 32.96 0 45.536z"/>
            <glyph unicode="&#xe622;" glyph-name="uniE622" data-tags="uniE622"
                   d="M960 832h-896c-35.36 0-64-28.64-64-64v-640c0-35.36 28.64-64 64-64h896c35.36 0 64 28.64 64 64v640c0 35.36-28.64 64-64 64zM896 320l-192 192-256-256-128 128-192-192v512h768v-384zM288 448c52.992 0 96 43.008 96 96s-43.008 96-96 96-96-43.008-96-96 43.008-96 96-96z"/>
            <glyph unicode="&#xe623;" glyph-name="uniE623" data-tags="uniE623" horiz-adv-x="973"
                   d="M543.283 175.667l408.934 495.206c5.12 7.782 8.038 17.101 8.038 26.982 0 27.187-22.016 49.254-49.152 49.254v0.051l-849.408-0.051c-27.187 0-49.203-22.067-49.203-49.254 0-10.291 3.226-19.917 8.653-27.802l5.53-6.707 402.739-487.68c13.517-16.384 33.946-26.778 56.883-26.778s43.469 10.342 56.986 26.778z"/>
            <glyph unicode="&#xe624;" glyph-name="uniE624" data-tags="uniE624"
                   d="M685.6 887.808l-153.184-153.376c-52.768-52.896-65.984-130.656-39.616-195.968 0.192-0.48 0.448-0.96 0.608-1.344 5.184-13.024 2.528-28.512-8-39.008l-23.36-23.456c-11.040-11.008-27.36-13.44-40.736-7.2l-0.064-0.096c-65.056 26.272-142.496 12.928-195.2-39.872l-153.152-153.344c-70.368-70.496-70.368-185.216 0-255.712l10.208-10.208c70.4-70.496 184.896-70.496 255.264 0l153.152 153.376c52.704 52.768 65.984 130.4 39.712 195.456l0.16 0.16c-6.208 13.312-3.808 29.728 7.168 40.8l23.424 23.328c10.496 10.528 25.984 13.248 38.976 8 0.448-0.192 0.896-0.416 1.344-0.608 65.184-26.368 142.816-13.248 195.616 39.744l153.088 153.376c70.432 70.464 70.432 185.216 0.128 255.68l-10.24 10.24c-70.4 70.496-184.896 70.496-255.296 0.032zM414.976 238.272l-153.184-153.408c-28.192-28.288-73.888-28.288-102.112 0l-10.176 10.208c-28.192 28.32-28.192 74.048 0 102.336l153.184 153.408c3.904 3.872 8.16 7.328 12.704 10.048 5.376 3.616 12.608 3.040 17.376-1.76 4-4.032 5.024-9.888 3.136-14.848-0.064-0.064-0.064-0.064-0.096-0.192-0.192-0.576-0.448-1.024-0.736-1.536-9.056-19.936-5.408-44.384 11.040-60.704 16.448-16.576 40.896-20.192 60.896-11.072 0.448 0.32 0.96 0.512 1.344 0.704 5.024 2.016 10.912 0.96 14.976-3.136 4.736-4.672 5.344-12 1.76-17.312-2.784-4.544-6.24-8.864-10.112-12.736zM874.528 800.928c28.16-28.32 28.16-74.080 0-102.336l-153.216-153.472c-3.84-3.872-8.16-7.232-12.64-10.016-5.344-3.584-12.704-3.008-17.376 1.76-4.128 4.096-5.088 10.048-3.168 15.008 0.192 0.384 0.448 0.864 0.672 1.28 9.184 20.064 5.568 44.608-10.912 61.056-16.416 16.448-40.704 20.128-60.704 11.104-0.512-0.288-0.96-0.576-1.504-0.768-0.064 0-0.16 0-0.224-0.096-4.96-1.856-10.784-0.864-14.784 3.136-4.768 4.768-5.28 12.064-1.792 17.536 2.784 4.48 6.144 8.768 10.048 12.64l153.216 153.472c28.192 28.256 73.856 28.256 102.080 0l10.304-10.304z"/>
            <glyph unicode="&#xe625;" glyph-name="uniE625" data-tags="uniE625" horiz-adv-x="973"
                   d="M429.517 720.384l-408.934-495.206c-5.12-7.782-8.038-17.101-8.038-26.982 0-27.187 22.016-49.254 49.152-49.254v-0.051l849.408 0.051c27.187 0 49.203 22.067 49.203 49.254 0 10.291-3.226 19.917-8.653 27.802l-5.53 6.707-402.79 487.68c-13.517 16.384-33.946 26.778-56.883 26.778s-43.418-10.342-56.934-26.778z"/>
            <glyph unicode="&#xe626;" glyph-name="uniE626" data-tags="uniE626"
                   d="M512 963.328c-284.109 0-515.328-231.168-515.328-515.328s231.219-515.328 515.328-515.328 515.328 231.168 515.328 515.328-231.168 515.328-515.328 515.328zM99.072 448c0 120.218 51.712 228.096 133.683 303.565 0.87-1.638 2.048-2.97 2.611-5.018-12.954-11.674-26.931-22.835-37.274-36.557 5.274-32.41-4.915-62.31-0.922-89.6 3.635-24.269 21.555-42.086 26.317-63.795 6.502 10.701 9.472 24.269 13.056 37.325 13.773-22.477 23.654-48.998 35.635-73.318 39.066-20.736 80.691-38.707 128.87-50.022 17.050-31.949 44.083-53.965 79.411-66.97-7.322-31.693-13.875-64.102-34.099-85.248 5.837-19.251-3.43-33.331 0.819-46.797 4.352-13.363 27.494-23.552 39.629-32.461 15.462-11.366 27.494-22.016 39.475-30.362-3.84-33.075 1.638-63.744-2.918-91.853-4.813-30.054-22.682-54.528-27.853-80.947 0-0.102 0.051-0.102 0.051-0.154-220.416 8.806-396.493 189.645-396.493 412.211zM525.875 35.738c9.114 9.882 16.538 20.941 27.341 29.85 26.010 21.658 59.648 37.837 88.883 57.958 14.438 9.933 27.238 21.862 42.035 30.874 15.411 9.37 32.973 15.053 46.899 24.986 9.472 6.605 16.538 16.435 24.883 25.907 22.272 25.293 46.95 51.866 69.683 79.104-6.861 16.026-11.827 33.792-18.637 49.971-20.685 10.957-45.363 17.818-67.891 26.726-6.093 14.49-15.718 25.6-20.326 41.677-45.261 11.725-87.245 24.781-134.912 39.322-12.749 3.84-35.123 13.056-44.902 11.725-13.875-1.894-25.088-23.706-40.141-26.624-18.227-3.482-31.949 9.472-53.402 7.219-0.819 12.8-1.638 25.651-2.458 38.554-12.493 17.459-29.901 29.594-46.899 42.189-1.28 11.008-4.813 19.661-4.301 32.41-15.667-5.837-27.546-14.541-40.499-22.63-10.65 7.782-18.842 17.869-28.211 26.931 6.912 18.586 17.664 34.099 25.242 52.275 35.379 2.048 73.114 12.8 99.174 1.485 6.707-9.062 0.256-31.642 15.411-31.795 10.086 4.966-0.307 24.013 2.048 34.765 6.502 28.058 53.555 31.693 43.878 71.731 35.43 17.715 71.475 35.021 109.261 50.79-21.555 33.946-56.986 53.35-86.682 78.694-7.834-5.734-29.44-0.256-37.222-6.144-4.096-9.421-3.635-22.63-4.352-34.765-16.486 3.072-27.802 11.418-45.005 13.722-3.123 11.315-9.728 18.79-12.954 29.901 20.736 10.752 47.974 22.272 78.438 14.438-2.611 12.493-15.821 13.363-27.341 14.746-11.008 1.382-27.648 2.97-39.987 1.946-10.701-0.87-20.224-6.912-30.31-7.782-11.571-1.178-23.808 0.512-35.379 2.099 42.291 14.592 87.552 22.938 134.758 22.938 228.045 0 412.928-184.883 412.928-412.928 0.051-223.437-177.459-404.89-399.053-412.262z"/>
            <glyph unicode="&#xe627;" glyph-name="uniE627" data-tags="uniE627"
                   d="M556.448 339.872l140.704 233.568-233.568-140.8 92.864-92.768zM575.712 825.184v5.12h63.712c35.2 0 63.712 28.544 63.712 63.712s-28.544 63.712-63.712 63.712h-254.848c-35.232 0-63.712-28.544-63.712-63.712s28.48-63.712 63.712-63.712h63.712v-5.12c-216.032-30.912-382.272-216.288-382.272-440.896 0-246.304 199.68-446.016 446.016-446.016s446.016 199.68 446.016 446.016c-0.032 224.608-166.304 409.984-382.336 440.896zM512 65.728c-175.968 0-318.592 142.592-318.592 318.56 0 175.904 142.624 318.592 318.592 318.592s318.56-142.656 318.56-318.592c0-175.968-142.592-318.56-318.56-318.56z"/>
            <glyph unicode="&#xe628;" glyph-name="uniE628" data-tags="uniE628"
                   d="M43.52 841.728c0 0 0 0-0.032-0.032-4.128-5.504-8.032-10.976-11.52-16.352-11.68-19.712-18.432-42.656-18.432-67.264 0-10.752 1.28-21.152 3.712-31.136 0-0.096 0-0.16 0.032-0.256 1.184-4.16 2.464-8.384 3.744-12.576 45.248-146.784 161.152-313.6 302.368-455.040 141.184-141.504 307.744-257.568 454.24-302.88 4.192-1.344 8.416-2.592 12.608-3.744 0.096-0.064 0.128-0.064 0.288-0.096 9.92-2.432 20.352-3.712 31.040-3.712 24.544 0 47.456 6.72 67.104 18.464 5.376 3.552 10.848 7.392 16.384 11.52 0 0 0 0 0.032 0.064 38.816 29.184 77.504 71.84 97.568 109.248l-0.16 0.064c5.088 9.44 7.968 20.256 7.968 31.776 0.032 18.464-7.424 35.104-19.488 47.2l0.064 0.032c-46.24 48.512-133.76 104.192-192.576 137.088-2.496 1.44-4.928 2.816-7.36 4.096-8.64 4.096-18.272 6.432-28.448 6.432-13.824-0.032-26.624-4.256-37.248-11.392l-0.16 0.256c-22.848-15.456-50.080-37.408-73.6-53.76-4.704-4.224-10.016-7.744-15.808-10.4-8.576-4.096-18.144-6.368-28.256-6.368-8.576 0-16.768 1.632-24.32 4.608-0.032 0-0.032 0.032-0.096 0.032-5.184 2.048-10.016 4.736-14.56 7.968-42.976 25.056-95.136 68.288-142.784 116-47.68 47.776-90.816 100-115.872 143.104-3.232 4.48-5.888 9.344-7.936 14.528 0 0.032-0.032 0.032-0.032 0.096-2.944 7.52-4.608 15.744-4.608 24.32 0 10.176 2.304 19.744 6.336 28.32 2.688 5.824 6.24 11.136 10.432 15.84 16.288 23.552 38.208 50.816 53.664 73.76l-0.288 0.16c7.168 10.624 11.36 23.456 11.36 37.248 0 10.208-2.304 19.904-6.368 28.512-1.344 2.4-2.656 4.832-4.096 7.392-32.896 59.040-88.416 146.688-136.864 192.992l-0.096-0.032c-12.032 12.064-28.672 19.52-47.008 19.52-11.52 0-22.336-2.912-31.712-8l-0.16 0.16c-37.344-20.064-79.872-58.848-109.056-97.76z"/>
            <glyph unicode="&#xe629;" glyph-name="uniE629" data-tags="uniE629"
                   d="M511.949 963.328c-284.058 0-515.277-231.219-515.277-515.328s231.219-515.328 515.277-515.328c284.211 0 515.379 231.219 515.379 515.328s-231.168 515.328-515.379 515.328zM511.949 35.021c-227.994 0-412.877 184.883-412.877 412.979s184.883 412.928 412.877 412.928c228.096 0 412.979-184.883 412.979-412.928s-184.832-412.979-412.979-412.979zM563.149 723.968h-102.4v-351.693h247.91v102.4h-145.51z"/>
            <glyph unicode="&#xe62a;" glyph-name="uniE62A" data-tags="uniE62A"
                   d="M101.924 116.166v187.038c129.719-23.507 265.243-36.111 404.571-36.111 143.439 0 282.614 13.322 415.569 38.169v-189.096h-820.14zM922.063 595.026v-185.083c-132.287-26.080-271.615-39.97-415.569-39.97-139.843 0-275.367 13.169-404.571 37.86v187.191h820.14zM366.858 728.409c0 28.396 23.024 51.441 51.394 51.441h187.432c28.317 0 51.394-23.045 51.394-51.441v-30.504h-290.219v30.504zM759.864 697.906v30.504c0 85.133-69.175 154.321-154.181 154.321h-187.432c-85.006 0-154.181-69.188-154.181-154.321v-30.504h-264.934v-684.622h1025.715v684.622h-264.986zM563.361 473.111h-102.787v-51.441h102.787z"/>
            <glyph unicode="&#xe62b;" glyph-name="uniE62B" data-tags="uniE62B"
                   d="M938.665 832.011h-853.342c-47.063 0-85.333-38.273-85.333-85.333v-597.34c0-47.063 38.273-85.333 85.333-85.333h853.342c47.063 0 85.333 38.273 85.333 85.333v597.34c0 47.063-38.273 85.333-85.333 85.333v0zM938.539 149.339h-853.213v597.34h853.342l-0.129-597.34zM383.99 192.002c46.762 0 90.454 12.756 128.213 34.733 37.631-21.888 81.155-34.733 127.788-34.733 141.187 0 256.001 114.818 256.001 256.001 0 141.142-114.818 256.001-256.001 256.001-46.634 0-90.157-12.844-127.788-34.772-37.759 21.972-81.451 34.772-128.213 34.772-141.187 0-256.001-114.859-256.001-256.001 0-141.187 114.818-256.001 256.001-256.001v0zM810.661 448.009c0-94.123-76.547-170.67-170.67-170.67-20.009 0-39.039 3.797-56.834 10.156 35.5 43.949 56.834 99.754 56.834 160.514 0 60.715-21.334 116.564-56.834 160.514 17.794 6.358 36.821 10.156 56.834 10.156 94.123 0 170.67-76.547 170.67-170.67v0zM219.383 490.672h79.276v85.333h-26.367c8.193 7.124 16.939 13.399 26.367 18.946v-18.946h85.333v42.669c31.233 0 60.116-9.045 85.333-23.722v-18.946h26.367c25.473-22.229 44.162-51.628 52.908-85.333h-79.276v-85.333h79.276c-8.746-33.707-27.478-63.064-52.908-85.333h-26.367v-18.946c-25.215-14.68-54.102-23.722-85.333-23.722v42.669h-85.333v-18.946c-9.428 5.503-18.175 11.818-26.367 18.946h26.367v85.333h-79.276c-3.54 13.695-6.057 27.86-6.057 42.669s2.516 28.929 6.057 42.669v0zM383.99 576.010h85.333v-85.333h-85.333v85.333zM298.658 490.672h85.333v-85.333h-85.333v85.333zM383.99 405.34h85.333v-85.333h-85.333v85.333z"/>
            <glyph unicode="&#xe62c;" glyph-name="uniE62C" data-tags="uniE62C"
                   d="M917.094 122.522l-208.179 208.23c38.502 54.17 61.389 120.166 61.389 191.488 0 182.886-148.787 331.725-331.725 331.725s-331.674-148.787-331.674-331.674c0-182.835 148.787-331.674 331.725-331.674 70.502 0 135.782 22.323 189.594 59.955l208.486-208.486 80.384 80.435zM438.63 293.018c-126.413 0-229.325 102.861-229.325 229.274 0 126.464 102.912 229.325 229.325 229.325s229.274-102.912 229.274-229.325c0-126.413-102.912-229.274-229.274-229.274z"/>
            <glyph unicode="&#xe62d;" glyph-name="uniE62D" data-tags="uniE62D" horiz-adv-x="973"
                   d="M525.517 4.915l280.883 340.173c3.482 5.325 5.581 11.725 5.581 18.534 0 18.688-15.104 33.843-33.792 33.843v0.102l-583.578-0.051c-18.688 0-33.792-15.155-33.792-33.843 0-7.066 2.202-13.67 5.939-19.098l3.789-4.608 276.685-335.053c9.267-11.264 23.296-18.381 39.117-18.381 15.77 0 29.85 7.117 39.168 18.381zM447.334 891.136l-280.986-340.224c-3.482-5.325-5.53-11.725-5.53-18.534 0-18.688 15.104-33.843 33.741-33.843v-0.051l583.629 0.051c18.688 0 33.792 15.155 33.792 33.843 0 7.066-2.202 13.67-5.99 19.098l-3.789 4.608-276.685 335.053c-9.216 11.213-23.296 18.381-39.117 18.381-15.718 0-29.798-7.168-39.066-18.381z"/>
            <glyph unicode="&#xe62e;" glyph-name="uniE62E" data-tags="uniE62E"
                   d="M716.806 959.997h-409.6c-56.474 0-102.4-45.875-102.4-102.4v-819.2c0-56.525 45.926-102.4 102.4-102.4h409.6c56.474 0 102.4 45.875 102.4 102.4v819.2c0 56.474-45.926 102.4-102.4 102.4zM716.806 857.597v-102.4h-409.6v102.4h409.6zM716.857 652.797v-409.6h-409.651v409.6h409.651zM307.206 38.397v102.4h409.651v-102.4h-409.651z"/>
            <glyph unicode="&#xe62f;" glyph-name="uniE62F" data-tags="uniE62F"
                   d="M589.248 447.936l115.808 115.84-77.248 77.344-115.872-115.872-115.872 115.872-77.248-77.248 115.872-115.936-115.872-115.808 77.248-77.248 115.936 115.872 115.936-115.872 77.248 77.248z"/>
            <glyph unicode="&#xe630;" glyph-name="uniE630" data-tags="uniE630"
                   d="M757.043 147.2l-15.002 41.626c-24.678 68.198-38.349 112.486-7.885 160.102 33.024 51.507 99.994 115.61 147.405 154.726 36.659 30.157 45.619 62.874 46.643 84.941 1.638 36.506-15.718 73.267-51.866 109.414l-114.278 114.278c-36.198 36.198-72.96 53.555-109.414 51.917-22.17-1.075-54.784-9.984-84.941-46.643-39.219-47.411-103.373-114.432-154.829-147.456-47.514-30.413-91.802-16.845-160 7.885l-41.626 15.053-115.558-115.558 219.494-219.494-202.138-309.094 308.992 202.291 219.494-219.494 115.507 115.507zM246.323 571.699c64.87-22.221 141.312-39.322 221.747 12.186 61.389 39.322 132.506 112.794 178.586 168.499 6.298 7.68 10.291 9.472 10.854 9.472 0.051 0.051 10.342-0.154 32.102-21.965l114.33-114.278c21.76-21.811 22.016-32.051 21.914-32.102 0-0.614-1.69-4.608-9.523-10.957-55.603-45.978-129.075-117.094-168.397-178.432-51.507-80.486-34.406-156.979-12.186-221.798l-389.427 389.376z"/>
            <glyph unicode="&#xe631;" glyph-name="uniE631" data-tags="uniE631"
                   d="M512.032 821.984c-206.56 0-374.016-167.456-374.016-374.016 0-206.592 167.456-374.016 374.016-374.016s374.016 167.424 374.016 374.016c-0.032 206.56-167.488 374.016-374.016 374.016zM511.2 213.408c-26.304 0-47.616 21.28-47.616 47.552s21.312 47.552 47.616 47.552c26.24 0 47.552-21.28 47.552-47.552s-21.312-47.552-47.552-47.552zM667.232 516.736c-4.576-11.040-10.432-21.024-17.664-29.952-7.232-8.96-15.264-17.12-24.096-24.576s-17.44-14.24-25.664-20.416c-8.256-6.176-15.808-11.776-22.624-16.864-6.784-5.088-11.872-10.24-15.168-15.328-3.68-5.504-6.464-11.456-8.352-17.824-1.888-6.4-4.256-12.224-7.136-17.536-2.88-5.344-6.88-9.664-12.064-13.088-5.152-3.392-12.864-5.088-23.168-5.088-13.216 0-23.104 4.576-29.728 13.696-6.592 9.152-9.856 18.816-9.856 28.992 0 12.736 2.656 23.936 8.032 33.44 5.344 9.568 12.032 18.368 20.064 26.432 8.032 8.096 16.704 15.616 25.984 22.656 9.312 6.976 17.952 14.24 25.984 21.664 8.096 7.424 14.752 15.168 20.128 23.264 5.344 8.064 8.032 17.44 8.032 28.032 0 17.44-5.248 30.976-15.808 40.512-10.496 9.536-25.024 14.336-43.584 14.336-13.216 0-23.616-2.144-31.232-6.4s-13.856-9.44-18.592-15.616c-4.736-6.144-8.544-12.832-11.392-20-2.848-7.232-6.144-13.888-9.856-20.064s-8.352-11.36-13.92-15.616c-5.568-4.256-13.312-6.4-23.2-6.4-10.72 0-20.128 3.296-28.16 9.92-8.064 6.56-12.064 16.256-12.064 28.992 0 15.712 4 30.688 12.064 44.928 8.032 14.24 18.752 26.752 32.192 37.6 13.344 10.816 28.768 19.456 46.048 25.792 17.344 6.4 35.456 9.6 54.464 9.6 19.776 0 39.104-2.464 57.856-7.36s35.552-12.416 50.4-22.624c14.848-10.208 26.72-23.36 35.552-39.488 8.864-16.16 13.344-35.488 13.344-58.016-0.032-14.048-2.304-26.56-6.816-37.6z"/>
            <glyph unicode="&#xe632;" glyph-name="uniE632" data-tags="uniE632" horiz-adv-x="973"
                   d="M707.379 600.218c-8.192 8.141-22.938 6.656-32.973-3.328l-250.778-218.47c-17.152-17.101-17.152-44.851 0-62.003 17.101-17.101 44.851-17.101 61.952 0l218.419 250.829c10.035 10.035 11.571 24.832 3.379 32.973zM955.648 390.554c-7.373 253.030-214.374 456.141-469.248 456.141-259.533 0-469.965-210.432-469.965-469.965 0-118.17 43.878-225.843 115.866-308.378 21.862-25.242 64.41-26.010 87.808 2.918l99.84 99.891c11.469 11.469 11.469 30.054 0 41.523s-30.054 11.469-41.523 0l-62.157-62.157c-45.875 54.63-75.213 123.546-80.998 199.066h86.733c16.179 0 29.389 13.21 29.389 29.389 0 16.23-13.21 29.389-29.389 29.389h-86.528c6.656 74.957 36.762 143.053 82.995 197.171l60.467-60.467c11.469-11.469 30.054-11.469 41.574 0s11.469 30.054 0 41.574l-60.365 60.211c54.426 45.619 122.778 74.854 197.786 80.896v-83.558c0-16.179 13.107-29.389 29.389-29.389 16.179 0 29.338 13.21 29.338 29.389v83.456c170.035-14.541 305.51-149.504 320.563-319.386h-86.477c-16.23 0-29.389-13.158-29.389-29.389 0-16.179 13.107-29.389 29.389-29.389h86.733c-5.786-75.52-35.072-144.333-80.947-199.066l-62.208 62.157c-11.469 11.469-30.054 11.469-41.523 0s-11.469-30.054 0-41.523l108.134-108.134c24.627-24.576 71.014-13.875 88.422 15.718 66.714 81.152 107.008 184.781 107.008 298.035 0 5.376-0.256 9.933-0.717 13.875z"/>
            <glyph unicode="&#xe633;" glyph-name="uniE633" data-tags="uniE633"
                   d="M638.566 554.906l72.448-72.397 219.494 219.392-219.494 219.494-72.448-72.397 95.949-95.898h-527.104v-102.4h527.104zM385.382 341.094l-72.397 72.397-219.494-219.392 219.494-219.494 72.397 72.397-95.898 95.898h527.104v102.4h-527.104z"/>
            <glyph unicode="&#xe634;" glyph-name="uniE634" data-tags="uniE634"
                   d="M496 848c-229.76 0-416-186.24-416-416s186.24-416 416-416 416 186.24 416 416-186.24 416-416 416zM496 196c-26.528 0-48 21.504-48 48s21.472 48 48 48c26.496 0 48-21.504 48-48s-21.504-48-48-48zM544 404c0-26.496-21.504-48-48-48-26.528 0-48 21.504-48 48v224c0 26.528 21.472 48 48 48 26.496 0 48-21.472 48-48v-224z"/>
            <glyph unicode="&#xe635;" glyph-name="uniE635" data-tags="uniE635"
                   d="M512 864c-229.76 0-416-186.24-416-416s186.24-416 416-416 416 186.24 416 416-186.24 416-416 416zM744.256 566.176l-303.552-303.52c-7.616-7.584-19.936-7.584-27.552 0l-6.112 6.112-0.032-0.032-167.008 168.192c-7.616 7.616-7.616 19.968 0 27.584l41.408 41.376c7.616 7.616 19.968 7.616 27.584 0l118.048-118.912 248.192 248.192c7.616 7.616 19.968 7.616 27.584 0l41.408-41.408c7.648-7.584 7.648-19.936 0.032-27.584z"/>
            <glyph unicode="&#xe636;" glyph-name="uniE636" data-tags="uniE636"
                   d="M698.24 543.040l-32.064 32.064c-5.92 5.92-15.488 5.92-21.376 0l-192.448-192.416-91.488 92.224c-5.952 5.92-15.488 5.92-21.44 0l-32.064-32.096c-5.92-5.92-5.92-15.488 0-21.376l134.176-135.136c5.92-5.888 15.488-5.888 21.376 0l235.328 235.328c5.952 5.92 5.952 15.488 0 21.408zM512 864c-229.76 0-416-186.24-416-416s186.24-416 416-416 416 186.24 416 416-186.24 416-416 416zM512 128c-176.704 0-320 143.296-320 320 0 176.736 143.296 320 320 320 176.736 0 320-143.264 320-320 0-176.704-143.264-320-320-320z"/>
            <glyph unicode="&#xe637;" glyph-name="uniE637" data-tags="uniE637"
                   d="M512 32c-229.76 0-416 186.24-416 416s186.24 416 416 416 416-186.24 416-416-186.24-416-416-416zM702.752 569.312c7.808 7.808 7.808 20.512 0 28.32l-42.496 42.464c-7.808 7.808-20.512 7.808-28.32 0l-120.352-120.352-120.352 120.352c-7.808 7.808-20.512 7.808-28.32 0l-42.496-42.464c-7.808-7.808-7.808-20.512 0-28.32l120.384-120.384-120.384-120.32c-7.808-7.808-7.808-20.512 0-28.32l42.496-42.496c7.808-7.808 20.512-7.808 28.32 0l120.352 120.384 120.352-120.384c7.808-7.808 20.512-7.808 28.32 0l42.496 42.496c7.808 7.808 7.808 20.512 0 28.32l-120.384 120.32 120.384 120.384z"/>
            <glyph unicode="&#xe638;" glyph-name="uniE638" data-tags="uniE638"
                   d="M512 32c-229.76 0-416 186.24-416 416s186.24 416 416 416 416-186.24 416-416-186.24-416-416-416zM512 768c-176.704 0-320-143.296-320-320s143.296-320 320-320c176.736 0 320 143.296 320 320s-143.264 320-320 320zM657.184 334.88l-32.448-32.448c-5.952-5.952-15.616-5.952-21.6 0l-91.84 91.84-91.84-91.84c-5.984-5.952-15.616-5.952-21.6 0l-32.448 32.448c-5.952 5.952-5.952 15.616 0 21.6l91.872 91.808-91.872 91.84c-5.952 5.984-5.952 15.648 0 21.632l32.448 32.416c5.984 5.984 15.616 5.984 21.6 0l91.84-91.84 91.84 91.84c5.984 5.984 15.648 5.984 21.6 0l32.448-32.416c5.952-5.984 5.952-15.648 0-21.632l-91.872-91.84 91.872-91.808c5.952-5.984 5.952-15.68 0-21.6z"/>
            <glyph unicode="&#xe639;" glyph-name="uniE639" data-tags="uniE639"
                   d="M65.854 122.605h892.28v-81.115h-892.28v81.115zM106.41 528.185h811.165c18.209 0 34.233 12.167 39.097 29.73s-2.556 36.217-18.209 45.589l-405.58 243.35c-12.855 7.667-28.879 7.667-41.735 0l-405.58-243.35c-15.654-9.367-23.119-28.024-18.25-45.589s20.888-29.73 39.097-29.73zM511.994 764.761l259.168-155.46h-518.332l259.168 155.46zM917.575 406.51v81.115h-811.165v-81.115h40.56v-162.233h-40.56v-81.115h811.165v81.115h-40.56v162.233h40.56zM552.55 406.51h81.115v-162.233h-81.115v162.233zM471.435 244.28h-81.115v162.233h81.115v-162.233zM228.085 406.51h81.115v-162.233h-81.115v162.233zM795.9 244.28h-81.115v162.233h81.115v-162.233z"/>
            <glyph unicode="&#xe63a;" glyph-name="uniE63A" data-tags="uniE63A"
                   d="M496 864c-238.592 0-432-193.408-432-432s193.408-432 432-432 432 193.408 432 432-193.408 432-432 432zM496 96c-185.568 0-336 150.432-336 336s150.432 336 336 336 336-150.432 336-336-150.432-336-336-336zM496 640c-26.496 0-48-21.472-48-48v-161.984c0-26.496 21.504-48 48-48s48 21.504 48 48v161.984c0 26.528-21.504 48-48 48zM496 320c-26.496 0-48-21.504-48-48s21.504-48 48-48 48 21.504 48 48-21.504 48-48 48z"/>
            <glyph unicode="&#xe63b;" glyph-name="uniE63B" data-tags="uniE63B" horiz-adv-x="973"
                   d="M939.622 779.725c-28.621 28.621-74.24 29.798-104.294 3.584l-7.322-7.424-451.277-451.584c-0.819-0.922-1.587-1.792-2.406-2.611s-1.741-1.638-2.611-2.355l-0.256-0.256-0.307-0.256c-15.974-13.107-39.168-12.698-54.682 1.126l-0.358 0.307c-0.461 0.461-1.075 0.973-1.536 1.434-0.512 0.512-1.075 1.075-1.485 1.587l-0.307 0.358-171.059 170.957c-29.952 30.003-78.49 30.003-108.442 0-29.338-29.286-29.952-76.493-1.741-106.547l3.584-3.635 278.886-278.989c0.256-0.205 0.512-0.461 0.768-0.717 15.821-14.182 39.731-14.49 55.757-0.87l4.966 5.018 292.045 291.994c0.563 0.666 1.126 1.28 1.741 1.894 0.563 0.614 1.229 1.178 1.894 1.741l27.955 28.058 0.205-0.205 245.914 245.555c24.064 30.054 22.17 74.086-5.632 101.837z"/>
            <glyph unicode="&#xe63c;" glyph-name="uniE63C" data-tags="uniE63C" horiz-adv-x="973"
                   d="M921.6 645.274v-394.598h-819.2v394.598h819.2zM1024 747.674h-1024v-599.398h1024v599.398zM152.934 585.216h102.4v-102.4h-102.4v102.4zM306.534 585.216h102.4v-102.4h-102.4v102.4zM768.512 585.216h102.4v-102.4h-102.4v102.4zM614.912 585.216h102.4v-102.4h-102.4v102.4zM459.315 585.216h102.4v-102.4h-102.4v102.4zM152.934 420.915h102.4v-102.4h-102.4v102.4zM768.512 420.915h102.4v-102.4h-102.4v102.4zM306.534 417.946h410.778v-96.512h-410.778v96.512z"/>
            <glyph unicode="&#xe63d;" glyph-name="uniE63D" data-tags="uniE63D" horiz-adv-x="973"
                   d="M775.578 929.997h-578.304c-106.496 0-192.87-86.323-192.87-192.87v-578.304c0-106.547 86.374-192.87 192.87-192.87h578.355c106.496 0 192.819 86.323 192.819 192.87v578.304c-0.051 106.598-86.323 192.87-192.87 192.87zM605.389 201.472h-237.978v96.41h237.978v-96.41zM605.389 484.608v-109.466h-237.978v109.466h-102.042l221.030 243.917 221.030-243.968h-102.042z"/>
            <glyph unicode="&#xe63e;" glyph-name="uniE63E" data-tags="uniE63E"
                   d="M50.381 166.758h511.283v-102.4h-511.283v102.4zM50.381 367.616h255.642v-102.4h-255.642v102.4zM50.381 576.41h366.080v-102.4h-366.080v102.4zM458.332 461.233l370.434 370.434 144.814-144.814-370.434-370.434-144.814 144.814zM416.461 268.442h145.203l-145.203 145.203z"/>
            <glyph unicode="&#xe63f;" glyph-name="uniE63F" data-tags="uniE63F" horiz-adv-x="973"
                   d="M844.8 698.47v44.902l-201.626 216.627h-463.974v-261.53h-179.2v-641.843h179.2v-120.627h665.6v120.576h179.2v641.894h-179.2zM281.6 857.6h313.037v-137.728h146.176l1.536-1.638v-187.699h-460.8v327.066zM742.4 38.4h-460.8v169.779h460.8v-169.779zM921.6 158.976h-76.8v151.603h-665.6v-151.603h-76.8v437.094h76.8v-167.987h665.6v167.987h76.8v-437.094z"/>
            <glyph unicode="&#xe640;" glyph-name="uniE640" data-tags="uniE640" horiz-adv-x="973"
                   d="M31.334 467.507c0 0-7.373-4.813-7.373-15.872s7.322-20.685 7.322-20.685c206.285-361.267 685.312-367.258 899.789-16.742-1.024-1.638 17.715 28.365 17.715 33.741 0 9.267-17.101 30.72-21.811 38.246-215.501 344.781-689.562 338.995-895.642-18.688zM484.966 215.398c-128.512 0.307-232.346 104.704-232.090 233.114 0.256 128.512 104.55 232.346 233.062 232.090 128.41-0.256 232.448-104.55 232.141-233.114-0.256-128.41-104.704-232.346-233.114-232.090zM602.88 455.936c4.403-64.87-44.698-121.037-109.517-125.338-64.87-4.352-120.986 44.698-125.286 109.568-4.352 64.973 44.698 120.934 109.568 125.286 64.768 4.352 120.832-44.595 125.235-109.517z"/>
            <glyph unicode="&#xe641;" glyph-name="uniE641" data-tags="uniE641"
                   d="M848 96h-96c-8.832 0-16 7.168-16 16s7.168 16 16 16h80v80c0 8.832 7.168 16 16 16 8.8 0 16-7.168 16-16v-96c0-8.832-7.2-16-16-16zM848 288c-8.832 0-16 7.168-16 16v96c0 8.832 7.168 16 16 16 8.8 0 16-7.168 16-16v-96c0-8.832-7.2-16-16-16zM848 480c-8.832 0-16 7.168-16 16v96c0 8.832 7.168 16 16 16 8.8 0 16-7.168 16-16v-96c0-8.832-7.2-16-16-16zM848 672c-8.832 0-16 7.168-16 16v80h-80c-8.832 0-16 7.168-16 16s7.168 16 16 16h96c8.8 0 16-7.168 16-16v-96c0-8.832-7.2-16-16-16zM469.312 286.304c-5.888-5.92-15.456-5.92-21.376 0l-32.064 32.064c-0.064 0.096-0.032 0.224-0.096 0.288l-102.016 102.784c-5.92 5.888-5.92 15.456 0 21.376l32.064 32.096c5.92 5.92 15.488 5.92 21.408 0l91.52-92.192 192.448 192.416c5.888 5.92 15.456 5.92 21.376 0l32.064-32.096c5.952-5.92 5.952-15.488 0-21.408l-235.328-235.328zM656 768h-96c-8.832 0-16 7.168-16 16s7.168 16 16 16h96c8.8 0 16-7.168 16-16s-7.2-16-16-16zM464 768h-96c-8.832 0-16 7.168-16 16s7.168 16 16 16h96c8.8 0 16-7.168 16-16s-7.2-16-16-16zM272 96h-96c-8.832 0-16 7.168-16 16v96c0 8.832 7.168 16 16 16s16-7.168 16-16v-80h80c8.832 0 16-7.168 16-16s-7.168-16-16-16zM272 768h-80v-80c0-8.832-7.168-16-16-16s-16 7.168-16 16v96c0 8.832 7.168 16 16 16h96c8.832 0 16-7.168 16-16s-7.168-16-16-16zM176 608c8.832 0 16-7.168 16-16v-96c0-8.832-7.168-16-16-16s-16 7.168-16 16v96c0 8.832 7.168 16 16 16zM176 416c8.832 0 16-7.168 16-16v-96c0-8.832-7.168-16-16-16s-16 7.168-16 16v96c0 8.832 7.168 16 16 16zM368 128h96c8.8 0 16-7.168 16-16s-7.2-16-16-16h-96c-8.832 0-16 7.168-16 16s7.168 16 16 16zM560 128h96c8.8 0 16-7.168 16-16s-7.2-16-16-16h-96c-8.832 0-16 7.168-16 16s7.168 16 16 16z"/>
            <glyph unicode="&#xe642;" glyph-name="uniE642" data-tags="uniE642" horiz-adv-x="973"
                   d="M293.53 412.16c0.205-3.482 1.28-6.758 1.69-10.189l213.811 213.862c-11.827 1.434-24.064 2.048-36.454 1.229-105.984-7.219-186.214-98.611-179.046-204.902zM498.33 233.114c105.984 7.066 186.163 98.867 179.046 204.851-0.205 3.482-1.229 6.707-1.69 10.086l-213.76-213.76c11.878-1.434 24.064-2.048 36.403-1.178zM890.931 837.786c-22.989 23.091-60.518 23.091-83.558 0l-695.962-696.013c-23.091-23.040-23.091-60.57 0-83.61 23.040-23.040 60.467-23.040 83.558 0l695.962 696.064c23.142 23.091 23.142 60.518 0 83.558zM152.678 257.741l107.674 107.674c-5.171 19.354-8.755 39.219-8.704 60.16 0.358 129.178 105.114 233.574 234.342 233.267 20.48-0.051 40.090-3.584 59.136-8.602l54.938 54.989c-209.715 49.51-442.419-37.171-571.136-260.557 0 0-7.373-4.813-7.373-15.923s7.373-20.787 7.373-20.787c34.355-60.211 76.8-109.619 123.75-150.221zM929.229 463.462c-31.334 50.176-68.557 92.006-109.158 127.386l-108.698-108.698c4.659-18.586 7.885-37.632 7.834-57.651-0.307-129.075-105.216-233.574-234.291-233.267-19.661 0.051-38.451 3.226-56.576 7.782l-54.272-54.272c204.39-46.694 429.824 34.611 559.411 246.374-1.126-1.741 17.715 28.467 17.715 33.946 0 9.267-17.203 30.874-21.965 38.4z"/>
            <glyph unicode="&#xe643;" glyph-name="uniE643" data-tags="uniE643"
                   d="M765.338 638.566v222.259h102.707v102.4h-712.038v-102.4h99.686v-222.259h0.819l94.618-190.515-94.618-190.618h-0.768v-222.259h-99.738v-102.4h711.987v102.4h-102.707v222.259h-0.819l-94.618 190.618 94.618 190.515h0.87zM512 224.819l-153.907-83.098v91.29l98.509 198.4v15.002h107.776v-15.002l98.509-198.4v-91.392l-150.886 83.2zM662.938 862.31v-199.219l-5.683-11.469h-293.376l-5.734 11.52v199.168h304.794z"/>
            <glyph unicode="&#xe644;" glyph-name="uniE644" data-tags="uniE644" horiz-adv-x="973"
                   d="M921.6 650.957h-97.382l-177.101 238.95c-16.845 22.682-48.845 27.546-71.629 10.65-22.682-16.845-27.443-48.896-10.65-71.629l131.891-177.971h-370.483l131.891 177.971c16.794 22.733 12.032 54.784-10.65 71.629-22.733 16.794-54.733 12.032-71.629-10.65l-177.152-238.95h-96.307c-56.32 0-95.386-45.568-86.835-101.222l71.168-463.206c8.55-55.654 61.645-101.222 117.965-101.222h614.707c56.32 0 109.414 45.568 117.965 101.222l71.168 463.206c8.448 55.654-30.669 101.222-86.938 101.222zM836.096 102.093c-0.922-5.632-11.059-14.336-16.742-14.336h-614.707c-5.683 0-15.872 8.704-16.742 14.336l-68.557 446.464h785.306l-68.557-446.464zM512.051 134.656c28.314 0 51.2 22.886 51.2 51.2v264.96c0 28.314-22.886 51.2-51.2 51.2s-51.2-22.886-51.2-51.2v-264.96c0-28.314 22.886-51.2 51.2-51.2zM728.73 134.656c28.314 0 51.2 22.886 51.2 51.2v264.96c0 28.314-22.886 51.2-51.2 51.2s-51.2-22.886-51.2-51.2v-264.96c0-28.314 22.886-51.2 51.2-51.2zM295.373 134.656c28.314 0 51.2 22.886 51.2 51.2v264.96c0 28.314-22.886 51.2-51.2 51.2s-51.2-22.886-51.2-51.2v-264.96c0-28.314 22.938-51.2 51.2-51.2z"/>
            <glyph unicode="&#xe645;" glyph-name="uniE645" data-tags="uniE645" horiz-adv-x="973"
                   d="M233.421 701.077c65.992 66.305 155.771 105.326 253.077 105.326 197.613 0 358.402-160.789 358.402-358.402h89.602c0 247.073-200.973 448.004-448.004 448.004-121.632 0-233.902-48.788-316.379-131.625l-86.824 86.824v-268.803h268.803l-118.676 118.676zM739.576 194.923c-65.992-66.305-155.726-105.326-253.077-105.326-197.613 0-358.402 160.789-358.402 358.402h-89.602c0-247.073 200.973-448.004 448.004-448.004 121.677 0 233.902 48.788 316.425 131.625l86.778-86.824v268.803h-268.803l118.676-118.676z"/>
            <glyph unicode="&#xe646;" glyph-name="uniE646" data-tags="uniE646" horiz-adv-x="973"
                   d="M817.306 226.15l-199.27 199.578c-0.922 0.768-1.894 1.587-2.765 2.458-0.973 0.922-1.792 1.843-2.56 2.867-8.090 10.701-7.219 26.010 2.56 35.84l-0.205 0.154 207.104 206.848c25.754 30.566 24.166 76.339-4.557 105.062-29.286 29.235-75.878 30.413-106.496 3.533l-7.219-7.27-197.12-197.274c-0.051-0.154-0.205-0.256-0.307-0.41-0.256-0.205-0.41-0.41-0.563-0.614-0.41-0.307-0.717-0.666-1.075-0.973-0.051 0-0.051 0-0.051 0-10.342-9.37-26.163-9.37-36.557 0-0.307 0.307-0.666 0.666-1.024 0.973-0.307 0.358-0.666 0.666-0.922 1.024l-205.619 206.029c-30.618 25.6-76.288 24.115-105.114-4.659-29.184-29.235-30.31-75.878-3.43-106.445l7.219-7.27 197.274-197.325c0 0 0 0 0.051 0 0.358-0.307 0.717-0.666 1.024-1.024 0.41-0.41 0.768-0.819 1.126-1.178 9.165-10.445 9.114-26.010-0.051-36.301 0 0-0.051-0.051-0.102-0.051-0.307-0.358-0.614-0.717-0.973-1.024-0.307-0.358-0.614-0.563-0.922-0.922-0.102-0.051-0.102-0.102-0.102-0.102l-205.875-205.978c-25.856-30.464-24.474-76.032 4.198-104.806 30.259-30.208 79.053-30.31 109.312-0.205l0.256 0.358 202.086 201.677c0.102 0.154 0.205 0.256 0.358 0.41 0.256 0.358 0.666 0.666 1.024 1.075 10.701 9.626 27.29 9.318 37.632-1.075v0l206.899-206.899c30.362-25.907 76.134-24.474 104.806 4.198 30.106 30.259 30.259 79.104 0.154 109.414l-0.205 0.307z"/>
            <glyph unicode="&#xe647;" glyph-name="uniE647" data-tags="uniE647"
                   d="M479.68 418.72c0 0 1.312 416.288 0.32 416.288-216.928 0-384-189.088-384-409.984s179.104-393.984 400-393.984c220.864 0 400 165.088 400 385.984 0 1.856-416.32 1.696-416.32 1.696zM928 451.008c0 220.928-197.088 414.016-417.984 414.016 3.072 0 0-414.016 0-414.016s417.984-1.216 417.984 0z"/>
            <glyph unicode="&#xe648;" glyph-name="uniE648" data-tags="uniE648" horiz-adv-x="973"
                   d="M872.55 740.301c0-28.314-23.296-51.2-52.122-51.2h-629.658c-28.774 0-52.122 22.886-52.122 51.2v0c0 28.262 23.347 51.2 52.122 51.2h629.658c28.826 0 52.122-22.938 52.122-51.2v0zM872.55 354.867c0-28.314-23.296-51.2-52.122-51.2h-629.658c-28.774 0-52.122 22.886-52.122 51.2v0c0 28.314 23.347 51.2 52.122 51.2h629.658c28.826 0 52.122-22.938 52.122-51.2v0zM326.4 547.584c0-28.262 22.938-51.2 51.2-51.2h443.75c28.314 0 51.2 22.938 51.2 51.2v0c0 28.262-22.886 51.2-51.2 51.2h-443.75c-28.262 0-51.2-22.938-51.2-51.2v0zM138.701 162.15c0-28.314 22.938-51.2 51.2-51.2h443.75c28.314 0 51.2 22.886 51.2 51.2v0c0 28.314-22.886 51.2-51.2 51.2h-443.75c-28.262 0-51.2-22.886-51.2-51.2v0z"/>
            <glyph unicode="&#xe649;" glyph-name="uniE649" data-tags="uniE649" horiz-adv-x="973"
                   d="M902.298 76.698v742.656c0 20.941-16.998 37.939-37.99 37.939h-755.814c-20.89 0-37.837-16.896-37.939-37.734v-742.963c0.051-20.89 16.998-37.888 37.939-37.888h419.738v328.704h-108.339v113.152h108.288v122.982c0 73.677 66.867 123.187 120.73 123.187h121.242v-103.014h-55.91c-27.597 0-64.358-22.374-64.358-49.92v-93.235h109.261v-113.152h-109.261v-328.704h214.323c21.094 0 38.093 16.998 38.093 37.99z"/>
            <glyph unicode="&#xe64a;" glyph-name="uniE64A" data-tags="uniE64A" horiz-adv-x="973"
                   d="M477.184 863.59c-125.082 7.885-250.010 15.821-375.040 23.706v-408.986c125.030-0.614 249.958-1.229 375.040-1.792v387.072zM532.531 860.109v-383.846c112.691-0.563 225.382-1.075 338.125-1.587v364.032c-112.691 7.168-225.382 14.234-338.125 21.402zM476.928 32.102c0.051 0 0.102 0 0.205 0v387.123c-125.030-0.512-250.010-1.024-375.040-1.434v-409.037c69.171 4.352 138.342 8.653 207.514 12.902v199.526l167.322-189.082zM532.531 35.482h0.051l170.035 197.734v-187.085l168.038 10.496v364.083l-338.125-1.28z"/>
            <glyph unicode="&#xe64b;" glyph-name="uniE64B" data-tags="uniE64B" horiz-adv-x="973"
                   d="M375.45 321.126h108.083v-181.658h-108.083v181.658zM682.752 334.182l112.179 109.875h147.968l-152.627-140.698 162.099-163.891h-151.45l-118.17 124.058v-124.058h-108.032v303.616h108.032v-108.902zM505.344 448.512c0-41.878-33.949-75.827-75.827-75.827s-75.827 33.949-75.827 75.827c0 41.878 33.949 75.827 75.827 75.827s75.827-33.949 75.827-75.827zM120.883 448.512c0 92.877 41.318 176.282 106.496 232.909l-62.259 78.899c-88.422-75.11-144.691-187.034-144.691-311.808 0-125.389 56.678-237.773 145.818-312.781 17.869 21.76 40.243 50.022 62.566 78.643-65.997 56.576-107.93 140.493-107.93 234.138zM177.203 448.512c0-75.622 33.382-143.411 86.17-189.594 34.099 44.032 61.338 79.872 61.338 79.872-28.877 27.699-47.053 66.662-47.053 109.773 0 43.059 18.125 82.022 47.053 109.67l-62.362 78.848c-52.224-46.234-85.146-113.562-85.146-188.57z"/>
            <glyph unicode="&#xe64c;" glyph-name="uniE64C" data-tags="uniE64C" horiz-adv-x="973"
                   d="M741.222 295.066c-21.555 0-41.984-4.506-60.621-12.595-0.41-0.205-0.819-0.41-1.178-0.512-9.421-4.403-19.814-6.81-30.822-6.81-12.134 0-23.603 3.021-33.69 8.192-2.97 1.485-5.683 3.226-8.397 5.018l-193.894 116.378c-0.307 0.205-0.512 0.307-0.819 0.512-0.717 0.41-1.382 0.819-2.099 1.178-13.722 8.806-22.784 24.115-22.784 41.523 0 17.92 9.523 33.485 23.706 42.086l196.915 118.17c0.205 0.102 0.358 0.307 0.563 0.41 1.741 1.075 3.533 2.202 5.325 3.226 0.102 0.102 0.102 0.102 0.205 0.102 10.445 5.683 22.426 8.909 35.123 8.909 10.906 0 21.248-2.304 30.515-6.605 0.512-0.205 1.024-0.41 1.485-0.717 18.483-8.090 39.014-12.493 60.518-12.493 84.378 0 152.883 68.403 152.883 152.883 0 84.429-68.506 152.934-152.883 152.934-80.384 0-146.381-62.208-152.422-141.261-1.178-23.706-13.619-44.39-32.102-56.986-2.202-1.587-4.608-3.021-7.117-4.301l-181.555-108.902c0 0 0 0-0.102-0.102-3.891-2.918-8.090-5.427-12.493-7.526-9.574-4.454-20.173-6.963-31.488-6.963-8.704 0-16.998 1.485-24.781 4.301-3.584 1.28-7.219 2.918-10.598 4.813-17.613 7.066-36.915 11.059-57.139 11.059-84.326 0-152.832-68.506-152.832-153.037 0-84.378 68.506-152.883 152.832-152.883 21.606 0 41.984 4.506 60.518 12.595 0.614 0.307 1.178 0.512 1.792 0.819 9.216 4.198 19.405 6.502 30.208 6.502 13.414 0 25.907-3.584 36.608-9.779 1.024-0.512 1.894-1.075 2.816-1.587l186.317-111.872c2.406-1.28 4.762-2.714 7.014-4.198 18.432-12.698 30.925-33.382 32.102-57.19 5.99-78.95 71.987-141.158 152.422-141.158 84.378 0 152.883 68.506 152.883 152.934-0.051 84.48-68.557 152.934-152.934 152.934z"/>
            <glyph unicode="&#xe64d;" glyph-name="uniE64D" data-tags="uniE64D" horiz-adv-x="973"
                   d="M641.946 290.918c0 44.288 0 88.576 0 132.915-46.592-0.717-93.184-1.382-139.776-2.099 0 46.848 0 93.696 0 140.493-46.592 1.894-93.235 3.738-139.827 5.581 0-49.357 0-98.765 0-148.122-46.592-0.717-93.184-1.331-139.776-2.048 0-52.070 0-104.090 0-156.16 0-51.917 0-103.782 0-155.699 0-51.814 0-103.629 0-155.443 46.643 8.346 93.235 16.64 139.827 24.986 46.592 8.294 93.184 16.589 139.827 24.934 46.541 8.294 93.133 16.589 139.725 24.934v0c46.592 8.294 93.184 16.589 139.776 24.934 0 41.626 0 83.302 0 124.979 0 41.779 0 83.661 0 125.44-46.592-3.174-93.184-6.4-139.776-9.626zM821.76 433.92c-43.725-14.797-87.398-30.362-131.123-46.797-16.23 40.192-32.461 81.203-48.691 123.034 43.725 14.49 87.398 28.16 131.123 40.96 16.23-39.885 32.41-79.002 48.691-117.197zM703.232 575.386c-45.978-4.915-91.955-10.24-137.933-16.026-7.68 45.363-15.411 91.187-23.091 137.37 45.926 3.328 91.904 6.246 137.83 8.704 7.782-43.725 15.462-87.091 23.194-130.048zM341.965 603.648c-45.056 15.155-90.061 31.027-135.066 47.462 11.981 49.613 24.013 98.611 36.045 146.944 45.005-18.637 90.061-36.71 135.066-54.118-12.032-46.131-24.013-92.877-36.045-140.288zM564.019 795.853c-38.195-21.043-76.39-43.264-114.586-66.714-26.675 41.882-53.402 84.992-80.077 129.28 38.195 22.579 76.39 43.93 114.586 64.154 26.675-43.418 53.35-85.658 80.077-126.72z"/>
            <glyph unicode="&#xe64e;" glyph-name="uniE64E" data-tags="uniE64E" horiz-adv-x="973"
                   d="M472.32 662.886c-129.536 9.37-259.021 18.637-388.506 27.955 0 73.114 0 146.33 0 219.494 129.536-16.896 259.021-33.741 388.506-50.637 0-65.587 0-131.174 0-196.813zM888.986 632.986c-129.485 9.318-259.072 18.586-388.506 27.853 0 65.075 0 130.15 0 195.174 129.434-16.845 259.021-33.741 388.506-50.586 0-57.498 0-114.944 0-172.442zM472.32 436.941c-129.536 0.666-259.021 1.229-388.506 1.894 0 73.165 0 146.33 0 219.494 129.536-8.141 259.021-16.333 388.506-24.525 0-65.638 0-131.226 0-196.864zM888.986 434.995c-129.485 0.563-259.072 1.178-388.506 1.843 0 65.075 0 130.15 0 195.226 129.434-8.192 259.021-16.384 388.506-24.525 0-57.6 0-115.046 0-172.544zM472.32 210.944c-129.536-8.038-259.021-16.026-388.506-24.115 0 73.114 0 146.278 0 219.443 129.536 0.512 259.021 1.024 388.506 1.485 0-65.536 0-131.226 0-196.813zM888.986 236.902c-129.485-7.987-259.072-16.026-388.506-24.218 0 65.075 0 130.15 0 195.226 129.434 0.563 259.021 1.024 388.506 1.485 0-57.446 0-114.995 0-172.493zM888.986 36.25c-129.485-16.794-259.072-33.638-388.506-50.586 0 65.075 0 130.15 0 195.226 129.434 9.37 259.021 18.586 388.506 27.955 0-57.549 0-115.098 0-172.595z"/>
            <glyph unicode="&#xe64f;" glyph-name="uniE64F" data-tags="uniE64F"
                   d="M197.754 866.909h465.455v-186.182h186.182v-46.545h93.091v112.361l-213.457 213.457h-531.27c-51.34 0-93.091-41.798-93.091-93.091v-232.727h93.091v232.727zM849.391 29.091h-651.636v46.545h-93.091v-46.545c0-51.34 41.751-93.091 93.091-93.091h651.636c51.34 0 93.091 41.751 93.091 93.091v46.545h-93.091v-46.545zM145.868 300.591v-123.5h-87.75v364h145.25c27.833 0 52.458-5.125 73.875-15.375s38-24.833 49.75-43.75c11.75-18.917 17.625-40.375 17.625-64.375 0-35.5-12.708-63.875-38.125-85.125s-60.291-31.875-104.625-31.875h-56zM145.868 368.341h57.5c17 0 29.958 4.25 38.875 12.75s13.375 20.5 13.375 36c0 17-4.583 30.583-13.75 40.75s-21.667 15.333-37.5 15.5h-58.5v-105zM391.368 177.091v364h117.25c32.167 0 61.083-7.292 86.75-21.875s45.708-35.167 60.125-61.75c14.417-26.583 21.708-56.375 21.875-89.375v-16.75c0-33.333-7.042-63.208-21.125-89.625s-33.917-47.083-59.5-62c-25.583-14.917-54.125-22.458-85.625-22.625h-119.75zM479.118 473.341v-228.75h30.5c25.167 0 44.5 8.958 58 26.875s20.25 44.541 20.25 79.875v15.75c0 35.167-6.75 61.667-20.25 79.5s-33.167 26.75-59 26.75h-29.5zM951.618 322.091h-141.5v-145h-87.75v364h243.5v-67.75h-155.75v-83.75h141.5v-67.5z"/>
            <glyph unicode="&#xe650;" glyph-name="uniE650" data-tags="uniE650" horiz-adv-x="1100"
                   d="M682.752 750.694c-14.899 0-29.491-1.075-43.93-2.662-58.573 87.91-169.882 147.456-297.523 147.456-188.211 0-341.299-129.382-341.299-288.512 0-77.773 36.403-150.374 99.021-203.52 1.843-1.587 5.683-4.71 5.683-4.71l13.107-237.107c0 0 218.214 156.826 223.488 156.826 15.053 0 29.798 1.075 44.288 2.714-0.102 0-0.205-0.051-0.358-0.051 57.651-86.477 166.554-145.664 291.738-147.405 1.894-0.051 5.734-0.051 5.734-0.051l199.014-173.158 9.984 233.421c0 0 2.816 1.894 4.25 2.867 80.23 54.118 128.051 136.346 128.051 225.434 0.051 159.078-153.037 288.461-341.248 288.461zM310.221 419.277l-120.371-107.315v153.6c0 0-8.397 2.714-10.189 4.045-47.002 36.301-77.261 87.194-77.261 137.37 0 102.605 107.162 186.112 238.899 186.112 131.789 0 239.002-83.507 239.002-186.112 0-102.656-107.213-186.163-239.002-186.163-6.554 0.051-31.078-1.536-31.078-1.536zM818.432 307.2c-2.355-1.331-11.776-5.888-11.776-5.888v-139.674l-92.826 112.845c0 0-4.045 0.256-9.318 0.563-7.68 0.512-17.92 1.024-21.811 1.024-77.056 0-144.998 29.030-188.723 73.267-0.051-0.051-0.102-0.051-0.154-0.051 111.77 47.462 188.826 145.050 188.826 257.741 0 13.926-1.587 27.597-3.891 41.062 0 0 0-0.051 0-0.051 1.331 0 2.56 0.307 3.891 0.307 131.738 0 238.899-83.507 238.899-186.112 0.102-58.931-41.574-118.784-103.117-155.034zM664.064 700.211c0-0.051 0.051-0.102 0.051-0.205 0 0.102 0 0.154-0.051 0.205z"/>
            <glyph unicode="&#xe651;" glyph-name="uniE651" data-tags="uniE651" horiz-adv-x="973"
                   d="M724.531 751.309h-128.87c0 11.571-9.421 20.941-20.941 20.941h-125.491c-11.571 0-20.941-9.421-20.941-20.941h-128.614l-30.054-74.906h484.403l-29.491 74.906zM783.974 625.766h-585.779v-83.661h62.72v-418.458h502.118v418.458h62.72v83.661h-41.779zM407.398 228.301c0-23.091-18.739-41.779-41.83-41.779s-41.83 18.688-41.83 41.779v251.085c0 23.091 18.739 41.779 41.83 41.779s41.83-18.688 41.83-41.779v-251.085zM553.83 228.301c0-23.091-18.739-41.779-41.83-41.779s-41.83 18.688-41.83 41.779v251.085c0 23.091 18.739 41.779 41.83 41.779s41.83-18.688 41.83-41.779v-251.085zM700.262 228.301c0-23.091-18.739-41.779-41.83-41.779-23.142 0-41.83 18.688-41.83 41.779v251.085c0 23.091 18.688 41.779 41.83 41.779 23.091 0 41.83-18.688 41.83-41.779v-251.085z"/>
            <glyph unicode="&#xe652;" glyph-name="uniE652" data-tags="uniE652" horiz-adv-x="973"
                   d="M40.653 228.147c68.659 146.125 208.896 340.122 473.856 364.39 30.874 3.123 54.989 28.621 56.064 59.955 0.051 0.717 0.051 1.382 0.051 2.15s0 1.434-0.051 2.15v87.194h0.051c0 15.36 12.39 27.802 27.75 27.802 6.707 0 12.8-2.406 17.613-6.349 0.358-0.307 0.717-0.563 1.075-0.922l294.963-263.629c0.051-0.051 0.051-0.051 0.154-0.154l3.635-3.226c11.776-11.366 19.098-27.29 19.098-44.902 0-15.462-5.632-29.696-15.002-40.55l-10.752-9.882-291.226-269.875c-0.41-0.461-0.768-0.768-1.075-1.075-4.966-4.403-11.418-7.014-18.432-7.014-15.36 0-27.75 12.339-27.75 27.75h-0.051v109.056c0.051 0.819 0.051 1.434 0.051 2.202 0 0.717 0 1.331-0.051 2.15-1.075 33.434-28.672 60.314-62.413 60.314v0.102c-170.24-3.43-309.402-25.139-420.71-126.874h-0.051c-2.099-1.894-4.096-3.738-6.195-5.734-0.051-0.102-0.051-0.102-0.051-0.102-4.403-2.97-9.779-4.71-15.514-4.71-15.309 0-27.75 12.39-27.75 27.802-0.051 4.25 0.973 8.346 2.714 11.981z"/>
            <glyph unicode="&#xe653;" glyph-name="uniE653" data-tags="uniE653" horiz-adv-x="973"
                   d="M928 230.195c-68.045 144.742-206.899 337.050-469.453 361.011-30.566 3.072-54.528 28.365-55.552 59.443-0.051 0.717-0.051 1.382-0.051 2.15 0 0.717 0 1.382 0.051 2.099v86.426h-0.051c0 15.206-12.288 27.546-27.494 27.546-6.656 0-12.698-2.406-17.459-6.349-0.358-0.256-0.717-0.512-1.024-0.87l-292.25-261.222c-0.051-0.051-0.102-0.051-0.154-0.102l-3.635-3.277c-11.674-11.264-18.893-27.034-18.893-44.493 0-15.36 5.581-29.44 14.899-40.192l299.059-277.197c0.41-0.41 0.819-0.768 1.178-1.075 4.864-4.403 11.264-7.014 18.227-7.014 15.206 0 27.494 12.237 27.494 27.546h0.051v108.032c0 0.87 0 1.536 0 2.253 0 0.768 0 1.382 0.051 2.099 1.075 33.229 28.365 59.802 61.85 59.802v0.051c168.653-3.379 306.483-24.832 416.819-125.594v0c2.099-1.946 4.147-3.789 6.144-5.683 0.102-0.102 0.102-0.102 0.102-0.102 4.352-2.97 9.626-4.71 15.36-4.71 15.206 0 27.494 12.339 27.494 27.494 0 4.301-0.973 8.346-2.765 11.93z"/>
            <glyph unicode="&#xe654;" glyph-name="uniE654" data-tags="uniE654" horiz-adv-x="973"
                   d="M801.434 388.813c-3.994 1.28-7.885 2.509-11.315 3.891-35.482 15.104-74.394 32.307-112.077 49.203 12.083 24.986 22.682 53.914 26.214 87.091 1.485 15.309 1.178 31.181 0.717 48.486-0.205 5.786-0.41 11.622-0.41 17.408 0 52.224 0 101.478-30.618 146.125-35.686 52.48-95.386 82.586-163.789 82.586-8.704 0-17.818-0.512-27.494-1.485-84.531-9.523-153.907-75.418-165.12-156.723-2.406-17.306-1.792-33.997-1.178-51.712 0.205-6.195 0.41-12.493 0.41-18.79 0-5.325-0.205-10.906-0.41-16.486-0.512-14.592-1.229-32.819 0.87-51.917 3.123-27.29 14.182-61.389 24.883-85.094-14.899-6.502-30.208-13.21-45.107-19.917-22.477-9.984-44.902-20.019-65.997-28.826-3.226-1.382-7.117-2.611-12.288-4.301-3.379-1.075-82.995-27.904-101.478-75.776-16.589-42.906-15.821-92.621-14.899-150.221 0.205-13.619 0.512-27.904 0.512-42.701v-47.309h102.4v47.309c0 15.411-0.307 30.208-0.512 44.39-0.717 43.52-1.28 81.51 6.093 106.189 8.192 6.502 27.904 16.896 41.114 21.197 7.014 2.304 13.619 4.608 18.893 6.912 21.606 9.011 44.698 19.2 67.789 29.594 27.494 12.186 55.706 24.678 81.306 35.277l29.491 11.981 2.816 39.68c0.922 10.598 1.382 22.682 0.512 30.822l-2.816 15.616-8.090 11.11c-1.126 1.485-2.406 2.97-3.635 5.376-7.475 14.694-17.306 43.008-19.2 60.211-1.382 12.288-0.819 24.576-0.41 36.403 0.307 6.912 0.512 13.875 0.512 20.48 0 7.578-0.205 15.104-0.614 23.808-0.358 12.288-0.666 24.013 0.41 32.717 4.813 34.406 37.837 64.666 74.906 68.864 41.933 4.403 76.595-9.062 95.59-36.966 12.134-17.818 12.749-43.827 12.749-88.422 0-6.912 0.205-13.824 0.512-22.323 0.307-11.008 0.819-22.323-0.307-33.075-2.714-26.317-14.541-50.381-26.726-72.602l-6.4-11.571v-77.005l42.701-19.098c42.803-19.2 93.286-41.779 138.291-60.723 5.478-2.406 12.186-4.71 20.275-7.322 18.483-6.195 27.494-10.598 31.59-13.107 9.626-30.31 17.51-98.202 17.51-155.187v-50.483h102.4v50.483c0 45.875-5.683 146.79-27.29 199.782-14.592 35.942-54.784 53.453-93.286 66.15z"/>
            <glyph unicode="&#xe655;" glyph-name="uniE655" data-tags="uniE655" horiz-adv-x="973"
                   d="M801.434 388.813c-3.994 1.28-7.885 2.509-11.315 3.891-35.482 15.104-74.394 32.307-112.077 49.203 12.083 24.986 22.682 53.914 26.214 87.091 1.485 15.309 1.178 31.181 0.717 48.486-0.205 5.786-0.41 11.622-0.41 17.408 0 52.224 0 101.478-30.618 146.125-35.686 52.48-95.386 82.586-163.789 82.586-8.704 0-17.818-0.512-27.494-1.485-84.531-9.523-153.907-75.418-165.12-156.723-2.406-17.306-1.792-33.997-1.178-51.712 0.205-6.195 0.41-12.493 0.41-18.79 0-5.325-0.205-10.906-0.41-16.486-0.512-14.592-1.229-32.819 0.87-51.917 3.123-27.29 14.182-61.389 24.883-85.094-14.899-6.502-30.208-13.21-45.107-19.917-22.477-9.984-44.902-20.019-65.997-28.826-3.226-1.382-7.117-2.611-12.288-4.301-3.379-1.075-82.995-27.904-101.478-75.776-16.589-42.906-15.821-92.621-14.899-150.221 0.205-13.619 0.512-27.904 0.512-42.701v-47.309h102.4v47.309c0 15.411-0.307 30.208-0.512 44.39-0.717 43.52-1.28 81.51 6.093 106.189 8.192 6.502 27.904 16.896 41.114 21.197 7.014 2.304 13.619 4.608 18.893 6.912 21.606 9.011 44.698 19.2 67.789 29.594 27.494 12.186 55.706 24.678 81.306 35.277l29.491 11.981 2.816 39.68c0.922 10.598 1.382 22.682 0.512 30.822l-2.816 15.616-8.090 11.11c-1.126 1.485-2.406 2.97-3.635 5.376-7.475 14.694-17.306 43.008-19.2 60.211-1.382 12.288-0.819 24.576-0.41 36.403 0.307 6.912 0.512 13.875 0.512 20.48 0 7.578-0.205 15.104-0.614 23.808-0.358 12.288-0.666 24.013 0.41 32.717 4.813 34.406 37.837 64.666 74.906 68.864 41.933 4.403 76.595-9.062 95.59-36.966 12.134-17.818 12.749-43.827 12.749-88.422 0-6.912 0.205-13.824 0.512-22.323 0.307-11.008 0.819-22.323-0.307-33.075-2.714-26.317-14.541-50.381-26.726-72.602l-6.4-11.571v-77.005l42.701-19.098c42.803-19.2 93.286-41.779 138.291-60.723 5.478-2.406 12.186-4.71 20.275-7.322 18.483-6.195 27.494-10.598 31.59-13.107 9.626-30.31 17.51-98.202 17.51-155.187v-50.483h102.4v50.483c0 45.875-5.683 146.79-27.29 199.782-14.592 35.942-54.784 53.453-93.286 66.15z"/>
            <glyph unicode="&#xe656;" glyph-name="uniE656" data-tags="uniE656" horiz-adv-x="973"
                   d="M439.953 768.184l-106.729-106.729-65.815 65.815 219.089 219.089 219.089-219.089-65.815-65.815-106.729 106.729v-399.639h-93.091v399.639zM653.411 322h298.543v-372.364h-930.909v372.364h298.543l93.091-93.091h147.642l93.091 93.091zM858.862 42.727v186.182h-166.912l-93.091-93.091h-224.721l-93.091 93.091h-166.912v-186.182h744.727z"/>
            <glyph unicode="&#xe657;" glyph-name="uniE657" data-tags="uniE657" horiz-adv-x="973"
                   d="M716.018 584.203l-229.522-229.522-229.522 229.522 68.949 68.949 111.811-111.811v418.67h97.524v-418.67l111.811 111.811 68.949-68.949zM661.356 326.106h312.759v-390.095h-975.238v390.095h312.759l97.524-97.524h154.673l97.524 97.524zM876.591 33.535v195.048h-174.86l-97.524-97.524h-235.422l-97.524 97.524h-174.86v-195.048h780.19z"/>
            <glyph unicode="&#xe658;" glyph-name="uniE658" data-tags="uniE658" horiz-adv-x="973"
                   d="M535.091 957.286h-46.285l-1.024 1.024v-1.024h-480.87v-1020.672h819.302v718.694l-291.123 301.978zM109.312 39.014v815.872h378.522v-241.101h235.981v-574.771h-614.502zM207.206 742.605h98.202v-102.4h-98.202v102.4zM207.206 524.39h432.794v-102.4h-432.794v102.4zM207.206 311.398h432.794v-102.4h-432.794v102.4zM788.634 959.437h-144.742l270.797-278.426v-744.397h102.4v785.664z"/>
            <glyph unicode="&#xe659;" glyph-name="uniE659" data-tags="uniE659" horiz-adv-x="973"
                   d="M630.528 957.798h-46.285l-0.973 1.075v-1.075h-480.922v-1020.672h409.6v102.4h-307.2v815.872h378.522v-241.101h235.93v-261.632h102.4v303.104zM819.2 251.648h-102.4v-102.4h-102.4v-102.4h102.4v-102.4h102.4v102.4h102.4v102.4h-102.4z"/>
            <glyph unicode="&#xe65a;" glyph-name="uniE65A" data-tags="uniE65A" horiz-adv-x="973"
                   d="M630.528 957.747h-46.285l-0.973 1.075v-1.075h-480.922v-1020.621h409.6v102.4h-307.2v815.821h378.522v-241.101h235.93v-261.632h102.4v303.104zM614.4 149.197h307.2v-102.4h-307.2v102.4z"/>
            <glyph unicode="&#xe65b;" glyph-name="uniE65B" data-tags="uniE65B" horiz-adv-x="973"
                   d="M221.798 311.501h-80.845c-29.338-0.512-53.043-24.269-53.504-53.555v-185.19c0.461-29.696 24.678-53.606 54.477-53.606h78.899c28.109 0 51.2 21.299 54.17 48.589v195.174c-2.97 27.034-25.549 48.077-53.197 48.589zM834.56 594.125h-86.17c-27.136-1.741-48.845-23.501-50.688-50.637v-473.498c1.946-28.058 25.088-50.278 53.453-50.79h80.64c29.645 0.512 53.555 24.678 53.555 54.477v466.125c0 28.826-22.426 52.48-50.79 54.323zM525.926 876.851h-78.848c-29.184 0-52.992-22.886-54.477-51.712v-754.278c1.485-28.826 25.293-51.712 54.477-51.712h78.592c29.082 0 52.838 22.733 54.426 51.405v757.555c-2.816 27.392-25.958 48.742-54.17 48.742z"/>
            <glyph unicode="&#xe65c;" glyph-name="uniE65C" data-tags="uniE65C" horiz-adv-x="973"
                   d="M943.667 682.598c-8.499 8.499-19.456 13.056-30.566 13.773h-237.875c-6.912-0.717-13.619-3.738-18.893-9.011-12.237-12.339-12.288-32.205 0-44.544l61.082-61.133c12.288-12.339 12.339-32.205 0-44.544l-168.755-169.114c-0.922-1.075-1.843-1.997-2.867-2.918-5.837-5.222-13.619-8.294-22.016-8.294-9.011 0-17.050 3.482-23.040 9.318-0.307 0.205-0.563 0.512-0.717 0.717l-169.523 168.346c-0.512 0.461-1.024 0.973-1.434 1.331-7.834 7.066-17.971 10.906-28.518 10.906-10.086 0-19.917-3.635-27.597-10.138-0.512-0.41-1.024-0.922-1.485-1.331l-33.997-33.997c-0.307-0.307-0.563-0.614-0.819-0.87l-90.061-90.163c-0.256-0.102-0.512-0.512-0.768-0.717-0.205-0.205-0.512-0.512-0.717-0.819l-10.086-9.984c-0.614-0.512-1.229-1.024-1.792-1.587l-103.424-103.322c-0.666-0.717-1.28-1.382-1.843-2.099-18.176-22.579-16.384-55.398 4.25-75.878 10.752-10.803 25.037-16.794 40.346-16.794 13.824 0 27.085 5.018 37.427 14.080 0.41 0.41 0.819 0.717 1.229 1.075l164.454 164.608c0.102 0.205 0.256 0.307 0.358 0.41 0.461 0.512 0.922 1.024 1.434 1.382 0.102 0.205 0.256 0.41 0.41 0.512 5.837 5.376 13.722 8.602 22.323 8.602 8.55 0 16.384-3.226 22.272-8.602 0.051 0 0.102-0.102 0.154-0.102 0.614-0.614 1.178-1.178 1.741-1.792 0.102-0.102 0.205-0.205 0.358-0.41l168.755-167.526c0.512-0.512 1.024-1.024 1.485-1.382 7.782-7.014 17.971-10.906 28.518-10.906 10.086 0 19.968 3.584 27.597 10.189 0.512 0.41 1.075 0.922 1.485 1.28l245.606 245.146c12.339 12.288 32.256 12.288 44.595 0l60.672-60.826c12.339-12.288 32.307-12.288 44.544 0 6.144 6.195 9.216 14.182 9.216 22.323h0.154v228.813l0.102 5.222c-0.666 11.162-5.274 22.221-13.773 30.771z"/>
            <glyph unicode="&#xe65d;" glyph-name="uniE65D" data-tags="uniE65D" horiz-adv-x="973"
                   d="M940.288 215.194c-8.397-8.397-19.251-13.056-30.259-13.722h-236.134c-6.861 0.768-13.517 3.738-18.739 8.96-12.237 12.288-12.237 32.102 0 44.288l60.672 60.723c12.186 12.186 12.237 31.949 0 44.186l-167.526 167.782c-0.87 1.075-1.792 1.997-2.816 2.867-5.837 5.222-13.466 8.346-21.862 8.346-8.909 0-16.947-3.533-22.886-9.267-0.256-0.256-0.512-0.461-0.717-0.768l-168.397-167.117c-0.461-0.512-1.024-0.922-1.434-1.331-7.782-7.014-17.818-10.854-28.314-10.854-10.035 0-19.763 3.584-27.392 10.086-0.512 0.41-0.973 0.973-1.434 1.331l-33.792 33.792c-0.307 0.256-0.563 0.512-0.819 0.768l-89.395 89.549c-0.256 0.256-0.512 0.512-0.717 0.768-0.307 0.256-0.563 0.512-0.819 0.768l-9.882 9.882c-0.666 0.512-1.229 1.075-1.792 1.638l-102.707 102.605c-0.666 0.614-1.28 1.28-1.792 1.997-18.074 22.528-16.333 54.989 4.147 75.418 10.65 10.752 24.832 16.589 40.038 16.589 13.722 0 26.931-4.966 37.171-13.926 0.41-0.358 0.819-0.717 1.28-1.126l163.226-163.328c0.154-0.256 0.256-0.41 0.358-0.512 0.461-0.512 0.922-1.024 1.434-1.382 0.154-0.154 0.256-0.307 0.461-0.41 5.786-5.376 13.568-8.55 22.118-8.55s16.282 3.174 22.118 8.55c0.051 0 0.154 0.051 0.154 0.102 0.614 0.563 1.229 1.178 1.69 1.69 0.102 0.154 0.256 0.256 0.358 0.461l167.526 166.298c0.512 0.461 1.024 0.973 1.485 1.331 7.731 6.963 17.766 10.803 28.262 10.803 10.035 0 19.814-3.584 27.443-10.086 0.461-0.358 0.973-0.922 1.434-1.28l243.866-243.302c12.237-12.186 31.898-12.186 44.186 0l60.314 60.365c12.186 12.237 32 12.186 44.134 0 6.144-6.093 9.216-14.080 9.216-22.067h0.154v-232.448c-0.563-11.059-5.171-22.016-13.619-30.464z"/>
            <glyph unicode="&#xe65e;" glyph-name="uniE65E" data-tags="uniE65E"
                   d="M848 96h-96c-8.832 0-16 7.168-16 16s7.168 16 16 16h80v80c0 8.832 7.168 16 16 16 8.8 0 16-7.168 16-16v-96c0-8.832-7.2-16-16-16zM848 288c-8.832 0-16 7.168-16 16v96c0 8.832 7.168 16 16 16 8.8 0 16-7.168 16-16v-96c0-8.832-7.2-16-16-16zM848 480c-8.832 0-16 7.168-16 16v96c0 8.832 7.168 16 16 16 8.8 0 16-7.168 16-16v-96c0-8.832-7.2-16-16-16zM848 672c-8.832 0-16 7.168-16 16v80h-80c-8.832 0-16 7.168-16 16s7.168 16 16 16h96c8.8 0 16-7.168 16-16v-96c0-8.832-7.2-16-16-16zM656 96h-96c-8.832 0-16 7.168-16 16s7.168 16 16 16h96c8.8 0 16-7.168 16-16s-7.2-16-16-16zM656 768h-96c-8.832 0-16 7.168-16 16s7.168 16 16 16h96c8.8 0 16-7.168 16-16s-7.2-16-16-16zM464 768h-96c-8.832 0-16 7.168-16 16s7.168 16 16 16h96c8.8 0 16-7.168 16-16s-7.2-16-16-16zM272 96h-96c-8.832 0-16 7.168-16 16v96c0 8.832 7.168 16 16 16s16-7.168 16-16v-80h80c8.832 0 16-7.168 16-16s-7.168-16-16-16zM272 768h-80v-80c0-8.832-7.168-16-16-16s-16 7.168-16 16v96c0 8.832 7.168 16 16 16h96c8.832 0 16-7.168 16-16s-7.168-16-16-16zM176 608c8.832 0 16-7.168 16-16v-96c0-8.832-7.168-16-16-16s-16 7.168-16 16v96c0 8.832 7.168 16 16 16zM176 416c8.832 0 16-7.168 16-16v-96c0-8.832-7.168-16-16-16s-16 7.168-16 16v96c0 8.832 7.168 16 16 16zM663.552 328.864l-32.448-32.448c-5.952-5.984-15.616-5.984-21.6 0l-91.84 91.84-91.84-91.84c-5.984-5.984-15.616-5.984-21.6 0l-32.416 32.448c-5.984 5.984-5.984 15.616 0 21.6l91.872 91.84-91.872 91.84c-5.984 5.952-5.984 15.616 0 21.6l32.416 32.416c5.984 5.984 15.616 5.984 21.6 0l91.84-91.84 91.84 91.84c5.984 5.984 15.648 5.984 21.6 0l32.448-32.416c5.952-5.984 5.952-15.648 0-21.6l-91.872-91.84 91.872-91.84c5.952-5.952 5.952-15.616 0-21.6zM368 128h96c8.8 0 16-7.168 16-16s-7.2-16-16-16h-96c-8.832 0-16 7.168-16 16s7.168 16 16 16z"/>
            <glyph unicode="&#xe65f;" glyph-name="uniE65F" data-tags="uniE65F"
                   d="M848 96h-96c-8.832 0-16 7.168-16 16s7.168 16 16 16h80v80c0 8.832 7.168 16 16 16 8.8 0 16-7.168 16-16v-96c0-8.832-7.2-16-16-16zM848 288c-8.832 0-16 7.168-16 16v96c0 8.832 7.168 16 16 16 8.8 0 16-7.168 16-16v-96c0-8.832-7.2-16-16-16zM848 480c-8.832 0-16 7.168-16 16v96c0 8.832 7.168 16 16 16 8.8 0 16-7.168 16-16v-96c0-8.832-7.2-16-16-16zM848 672c-8.832 0-16 7.168-16 16v80h-80c-8.832 0-16 7.168-16 16s7.168 16 16 16h96c8.8 0 16-7.168 16-16v-96c0-8.832-7.2-16-16-16zM656 96h-96c-8.832 0-16 7.168-16 16s7.168 16 16 16h96c8.8 0 16-7.168 16-16s-7.2-16-16-16zM656 768h-96c-8.832 0-16 7.168-16 16s7.168 16 16 16h96c8.8 0 16-7.168 16-16s-7.2-16-16-16zM638.016 480c17.664 0 32-14.304 32-32 0-17.664-14.336-32-32-32h-96v-96c0-17.664-14.336-32-32-32-17.696 0-32 14.336-32 32v96h-96c-17.664 0-32 14.336-32 32 0 17.696 14.304 32 32 32h96v96c0 17.696 14.304 32 32 32 17.664 0 32-14.304 32-32v-96h96zM464 768h-96c-8.832 0-16 7.168-16 16s7.168 16 16 16h96c8.8 0 16-7.168 16-16s-7.2-16-16-16zM272 96h-96c-8.832 0-16 7.168-16 16v96c0 8.832 7.168 16 16 16s16-7.168 16-16v-80h80c8.832 0 16-7.168 16-16s-7.168-16-16-16zM272 768h-80v-80c0-8.832-7.168-16-16-16s-16 7.168-16 16v96c0 8.832 7.168 16 16 16h96c8.832 0 16-7.168 16-16s-7.168-16-16-16zM176 608c8.832 0 16-7.168 16-16v-96c0-8.832-7.168-16-16-16s-16 7.168-16 16v96c0 8.832 7.168 16 16 16zM176 416c8.832 0 16-7.168 16-16v-96c0-8.832-7.168-16-16-16s-16 7.168-16 16v96c0 8.832 7.168 16 16 16zM368 128h96c8.8 0 16-7.168 16-16s-7.2-16-16-16h-96c-8.832 0-16 7.168-16 16s7.168 16 16 16z"/>
            <glyph unicode="&#xe660;" glyph-name="uniE660" data-tags="uniE660"
                   d="M272 800h-96c-8.832 0-16-7.168-16-16v-96c0-8.832 7.168-16 16-16s16 7.168 16 16v80h80c8.832 0 16 7.168 16 16s-7.168 16-16 16zM368 768h96c8.8 0 16 7.168 16 16s-7.2 16-16 16h-96c-8.832 0-16-7.168-16-16s7.168-16 16-16zM656 800h-96c-8.832 0-16-7.168-16-16s7.168-16 16-16h96c8.8 0 16 7.168 16 16s-7.2 16-16 16zM848 800h-96c-8.832 0-16-7.168-16-16s7.168-16 16-16h80v-80c0-8.832 7.168-16 16-16 8.8 0 16 7.168 16 16v96c0 8.832-7.2 16-16 16zM848 608c-8.832 0-16-7.168-16-16v-96c0-8.832 7.168-16 16-16 8.8 0 16 7.168 16 16v96c0 8.832-7.2 16-16 16zM848 416c-8.832 0-16-7.168-16-16v-96c0-8.832 7.168-16 16-16 8.8 0 16 7.168 16 16v96c0 8.832-7.2 16-16 16zM848 224c-8.832 0-16-7.168-16-16v-80h-80c-8.832 0-16-7.168-16-16s7.168-16 16-16h96c8.8 0 16 7.168 16 16v96c0 8.832-7.2 16-16 16zM656 128h-96c-8.832 0-16-7.168-16-16s7.168-16 16-16h96c8.8 0 16 7.168 16 16s-7.2 16-16 16zM464 128h-96c-8.832 0-16-7.168-16-16s7.168-16 16-16h96c8.8 0 16 7.168 16 16s-7.2 16-16 16zM272 128h-80v80c0 8.832-7.168 16-16 16s-16-7.168-16-16v-96c0-8.832 7.168-16 16-16h96c8.832 0 16 7.168 16 16s-7.168 16-16 16zM176 288c8.832 0 16 7.168 16 16v96c0 8.832-7.168 16-16 16s-16-7.168-16-16v-96c0-8.832 7.168-16 16-16zM176 480c8.832 0 16 7.168 16 16v96c0 8.832-7.168 16-16 16s-16-7.168-16-16v-96c0-8.832 7.168-16 16-16zM382.016 416h256c17.696 0 32 14.336 32 32 0 17.696-14.304 32-32 32h-256c-17.696 0-32-14.304-32-32 0-17.664 14.304-32 32-32z"/>
            <glyph unicode="&#xe661;" glyph-name="uniE661" data-tags="uniE661" horiz-adv-x="973"
                   d="M795.085 813.978h-617.421c-55.706 0-100.864-46.643-100.864-104.141v-406.118c0-57.498 45.158-104.141 100.864-104.141h180.736v-62.413h-66.714v-55.194h409.6v55.194h-86.886v62.413h180.685c55.706 0 100.915 46.643 100.915 104.141v406.118c0 57.498-45.21 104.141-100.915 104.141zM792.525 303.462h-614.4v408.013h614.4v-408.013z"/>
            <glyph unicode="&#xe662;" glyph-name="uniE662" data-tags="uniE662" horiz-adv-x="973"
                   d="M851.2 864v-102.4h-102.4v102.4h-529.050v-102.4h-102.4v102.4h-51.2v-832h51.2v102.4h102.4v-102.4h529.050v102.4h102.4v-102.4h55.45v832h-55.45zM219.75 214.374h-102.4v102.4h102.4v-102.4zM219.75 396.8h-102.4v102.4h102.4v-102.4zM219.75 579.174h-102.4v102.4h102.4v-102.4zM689.050 147.251h-405.35v251.699h405.35v-251.699zM689.050 497.050h-405.35v251.75h405.35v-251.75zM851.2 214.374h-102.4v102.4h102.4v-102.4zM851.2 396.8h-102.4v102.4h102.4v-102.4zM851.2 579.174h-102.4v102.4h102.4v-102.4z"/>
            <glyph unicode="&#xe695;" glyph-name="uniE695" data-tags="uniE695" horiz-adv-x="973"
                   d="M271.923 168.038c-84.48 46.746-141.875 136.806-141.875 240.026 0 102.758 56.934 192.358 140.698 239.411 29.645 40.294 66.253 74.752 108.39 101.786-177.254-13.005-317.030-160.666-317.030-341.197 0-181.146 140.544-328.909 318.515-341.094-42.24 26.675-78.95 60.979-108.698 101.069zM596.838 134.451c-151.552 0-274.483 122.931-274.483 274.534 0 144.998 112.589 263.424 254.925 273.408v68.147c-179.712-10.342-322.918-159.283-322.918-341.555 0-188.877 153.651-342.426 342.477-342.426 188.877 0 342.579 153.549 342.579 342.426h-68.045c0.051-151.603-122.88-274.534-274.534-274.534zM948.326 722.79l-121.293 104.96c-2.15 1.792-5.222 2.099-7.629 1.075-2.56-1.28-4.25-3.84-4.25-6.605v-70.042h-162.355c-0.768 0 0-70.554 0-70.554l162.355 0.563v-66.355c0-2.765 1.69-5.274 4.25-6.451 0.973-0.512 1.946-0.768 3.021-0.768 1.638 0 3.277 0.614 4.659 1.69l121.242 101.376c1.741 1.331 2.56 3.277 2.56 5.478-0.051 2.253-0.819 4.301-2.56 5.632zM562.842 382.362l48.026 60.416v29.696h-130.611v-39.219h70.246v-0.614c-9.216-9.728-16.333-17.664-25.498-28.365l-50.278-63.078v-28.314h138.752v39.424h-76.698v0.614c9.062 8.806 17.203 18.893 26.061 29.44zM673.792 544.614v-121.446l-21.197-16.896v-35.379l21.197 16.64v-74.65h49.971v111.616l23.194 18.637v35.533l-23.194-18.586v84.531z"/>
            <glyph unicode="&#xe696;" glyph-name="uniE696" data-tags="uniE696" horiz-adv-x="973"
                   d="M788.634 708.352h-553.472c-35.891 0-64.922-28.928-64.922-64.768v-391.117c0-35.686 29.030-64.87 64.922-64.87h553.472c35.942 0 65.075 29.133 65.075 64.87v391.117c0.051 35.84-29.133 64.768-65.075 64.768zM511.949 643.584h218.982l-218.982-209.152-218.829 209.152h218.829zM788.634 299.315l-103.475 103.27-46.080-45.926 104.704-104.192h-463.462l104.397 104.192-45.824 45.926-103.731-103.27v309.606l276.787-264.397 276.685 264.397v-309.606z"/>
            </font>
</defs>
</svg>
