<?xml version="1.0" encoding="utf-8"?>
<!-- Generator: Adobe Illustrator 24.3.0, SVG Export Plug-In . SVG Version: 6.00 Build 0)  -->
<svg version="1.1" id="iPKO-logo-svg" xmlns="http://www.w3.org/2000/svg" x="0px"
     y="0px" viewBox="0 0 75 31.5" style="enable-background:new 0 0 75 31.5;" xml:space="preserve">
<style type="text/css">
	.st0{fill:#FFFFFF;fill-opacity:0;}
	.st1{fill:url(#SVGID_1_);}
	.st2{fill:#E4202C;}
</style>
    <rect id="bg" x="0" class="st0" width="75" height="31.5"/>
    <linearGradient id="SVGID_1_" gradientUnits="userSpaceOnUse" x1="5.097" y1="23.8176" x2="5.097" y2="5.9615"
                    gradientTransform="matrix(1 0 0 -1 0 35.0247)">
	<stop offset="0" style="stop-color:#004C9A"/>
        <stop offset="0.143" style="stop-color:#004994"/>
        <stop offset="0.33" style="stop-color:#013F84"/>
        <stop offset="0.542" style="stop-color:#033069"/>
        <stop offset="0.771" style="stop-color:#051A43"/>
        <stop offset="1" style="stop-color:#070016"/>
</linearGradient>
    <path class="st1" d="M8.2,11.1c-3.6,0-6.4,2.4-6.4,5.3l0,0v12.7h6.4L8.2,11.1z"/>
    <ellipse id="Ellipse_4_1_" class="st2" cx="5.2" cy="5.8" rx="4.2" ry="4.2"/>
    <path id="Path_7_1_" d="M31.1,11.3c0,4.8-3.3,8.4-9.1,8.4c-1,0-2-0.1-3-0.3v9.7H16V9c0-4.4,2.6-5.1,6.1-5.1
	C28.3,3.8,31.1,7,31.1,11.3z M22.3,5.6c-2.2,0-3.1,0.8-3.1,3.1v8.9c0.8,0.2,1.6,0.3,2.4,0.3c4.4,0,6.3-2.8,6.3-6.6
	C27.9,8.1,26.3,5.6,22.3,5.6z"/>
    <path id="Path_8_1_" d="M37.8,17v12.1h-3V4.2h3v11.7l8-9.4c1.5-1.7,3-2.4,4.5-2.4c0.4,0,0.8,0.1,1.2,0.1l-8.5,9.6
	c-0.8,1.1-2,1.8-3.3,2.2v0.7c1.5,0.4,2.8,1.3,3.7,2.6l8.7,9.8c-0.4,0.1-0.8,0.2-1.2,0.2c-1.8-0.1-3.5-0.9-4.6-2.4L37.8,17z"/>
    <path id="Path_9_1_" d="M63.1,29.5c-6.2,0-10.8-5-10.8-13.1c0-7.3,4.6-12.8,10.8-12.8s10.7,5.5,10.7,12.8
	C73.8,24.4,69.3,29.5,63.1,29.5z M63,5.7c-4.4,0-7.3,4.5-7.3,10.4c0,6.9,2.9,11.4,7.5,11.4c4.4,0,7.3-4.6,7.3-10.7
	C70.5,10.2,67.6,5.7,63,5.7z"/>
</svg>
