<?xml version="1.0" encoding="utf-8"?>
<!-- Generator: Adobe Illustrator 21.1.0, SVG Export Plug-In . SVG Version: 6.00 Build 0)  -->
<svg version="1.1" id="Przewra_info" xmlns="http://www.w3.org/2000/svg" x="0px"
     y="0px" viewBox="0 0 269 242" style="enable-background:new 0 0 269 242;" xml:space="preserve">
<style type="text/css">
	.st0{fill:#FFFFFF;fill-opacity:0.3;}
</style>
    <path class="st0" d="M134.5,9.6c8.1,0,16.5,6.4,22.9,17.5l96,165.9c6.4,11.1,7.8,21.5,3.7,28.5s-13.7,11-26.6,11h-192
	c-13,0-22.5-3.9-26.6-11c-4.1-7-2.7-17.4,3.7-28.5l96-165.9C118,15.9,126.3,9.5,134.5,9.6 M134.5,0c-11.3,0-22.6,7.4-31.1,22.2
	l-96,165.9C-9.8,217.8,4.2,242,38.5,242h192c34.2,0,48.3-24.2,31.1-53.8l-96-165.9C157,7.4,145.7,0,134.5,0L134.5,0L134.5,0z
	 M129.3,69.2l0,89c0,2.7,2.7,4.9,6,4.9c3.3,0,6-2.2,6-4.9l0-89c0-2.7-2.6-4.8-5.9-4.9h-0.2C131.9,64.3,129.3,66.5,129.3,69.2
	L129.3,69.2z M143.1,190.3c0-4.3-3.5-7.8-7.8-7.8c-4.3,0-7.8,3.5-7.8,7.8c0,4.3,3.5,7.8,7.8,7.8c0,0,0,0,0,0
	C139.6,198,143.1,194.6,143.1,190.3L143.1,190.3z"/>
</svg>
