<?xml version="1.0" encoding="UTF-8"?>
<!-- Generator: Adobe Illustrator 15.0.0, SVG Export Plug-In . SVG Version: 6.00 Build 0)  -->
<!DOCTYPE svg PUBLIC "-//W3C//DTD SVG 1.1//EN" "http://www.w3.org/Graphics/SVG/1.1/DTD/svg11.dtd">
<svg version="1.1" id="Layer_1" xmlns="http://www.w3.org/2000/svg" x="0px" y="0px" width="56px" height="56px"
     viewBox="0 0 56 56" enable-background="new 0 0 56 56" xml:space="preserve">
<path fill="#263C86"
      d="M56,53.153C56,54.724,54.724,56,53.148,56H2.847C1.275,56,0,54.724,0,53.153V2.848C0,1.278,1.275,0,2.847,0  h50.302C54.724,0,56,1.278,56,2.848V53.153z"/>
    <path fill="#FFFFFF"
          d="M56.001,5.937l-20.53,20.532l1.079,1.079l-0.45,0.45l19.901,19.9v5.253c0,1.57-1.278,2.847-2.852,2.847  h-3.09L29.531,35.47l-1.079,1.079l-0.451-0.452L8.1,55.998H2.849C1.277,55.998,0,54.722,0,53.151v-3.093l20.529-20.529l-1.08-1.08  l0.451-0.451L0.001,8.1V2.847C0.001,1.276,1.278,0,2.85,0h3.09l20.529,20.528l1.08-1.08L28,19.9L47.899,0h5.25  c1.575,0,2.852,1.276,2.852,2.847V5.937z"/>
    <path fill="#E62F3D"
          d="M33.985,27.999l1.119-1.119l-2.867-2.869l-1.119,1.12l-0.25-0.25l24.161-24.16  C54.525,0.275,53.874,0,53.148,0h-3.134L27.999,22.012l-1.118-1.118l-2.871,2.871l1.117,1.118L24.88,25.13L0.721,0.97  C0.277,1.474,0,2.125,0,2.847v3.138l22.012,22.014l-1.119,1.119l2.869,2.87l1.119-1.119l0.25,0.25L0.97,55.276  c0.503,0.445,1.155,0.722,1.877,0.722h3.137l22.014-22.013l1.121,1.121l2.867-2.87l-1.12-1.119l0.249-0.248l24.161,24.16  C55.722,54.525,56,53.872,56,53.151v-3.139L33.985,27.999z M27.999,28.25L27.75,28l0.248-0.249l0.25,0.25L27.999,28.25z"/>
    <path fill="#FFFFFF" d="M56,35.016H35.281V56H20.718V35.016H0V20.986h20.718V0h14.563v20.986H56V35.016z"/>
    <path fill="#E62F3D" d="M56,31.965H31.964V56h-7.923V31.965H0v-7.923h24.041V0h7.923v24.042H56V31.965z"/>
</svg>