<?xml version="1.0" encoding="utf-8"?>
<!-- Generator: Adobe Illustrator 23.0.4, SVG Export Plug-In . SVG Version: 6.00 Build 0)  -->
<!DOCTYPE svg PUBLIC "-//W3C//DTD SVG 1.0//EN"
        "http://www.w3.org/TR/2001/REC-SVG-20010904/DTD/svg10.dtd" [ <!ENTITY ns_extend "http://ns.adobe.com/Extensibility/1.0/">
        <!ENTITY ns_ai "http://ns.adobe.com/AdobeIllustrator/10.0/">
        <!ENTITY ns_graphs "http://ns.adobe.com/Graphs/1.0/">
        <!ENTITY ns_vars "http://ns.adobe.com/Variables/1.0/">
        <!ENTITY ns_imrep "http://ns.adobe.com/ImageReplacement/1.0/">
        <!ENTITY ns_sfw "http://ns.adobe.com/SaveForWeb/1.0/">
        <!ENTITY ns_custom "http://ns.adobe.com/GenericCustomNamespace/1.0/">
        <!ENTITY ns_adobe_xpath "http://ns.adobe.com/XPath/1.0/">
        ]>
<svg
        version="1.0"
        id="iPKO-logo-svg"
        xmlns="http://www.w3.org/2000/svg"
        x="0px"
        y="0px"
        viewBox="0 0 75 56"
        enable-background="new 0 0 75 56"
        xml:space="preserve"
>
  <metadata>
    <sfw xmlns="&ns_sfw;">
      <slices></slices>
        <sliceSourceBounds
                bottomLeftOrigin="true"
                height="56"
                width="75"
                x="0.042"
                y="0.042"
        ></sliceSourceBounds>
    </sfw>
  </metadata>
    <rect
            id="bg"
            x="0.042"
            y="-0.042"
            fill="#FFFFFF"
            fill-opacity="0"
            width="75"
            height="56"
    />
    <linearGradient
            id="SVGID_1_"
            gradientUnits="userSpaceOnUse"
            x1="5.097"
            y1="22.6947"
            x2="5.097"
            y2="40.5508"
    >
    <stop offset="0" style="stop-color:#004C9A"/>
        <stop offset="0.143" style="stop-color:#004994"/>
        <stop offset="0.33" style="stop-color:#013F84"/>
        <stop offset="0.542" style="stop-color:#033069"/>
        <stop offset="0.771" style="stop-color:#051A43"/>
        <stop offset="1" style="stop-color:#070016"/>
  </linearGradient>
    <path
            fill="url(#SVGID_1_)"
            d="M8.244,22.568c-3.6,0-6.358,2.376-6.358,5.33l0,0V40.55h6.422L8.244,22.568z"
    />
    <ellipse
            id="Ellipse_4_1_"
            fill="#E4202C"
            cx="5.226"
            cy="17.239"
            rx="4.239"
            ry="4.239"
    />
    <path
            id="Path_7_1_"
            d="M31.107,22.826c0,4.817-3.339,8.413-9.055,8.413c-0.991,0.008-1.98-0.078-2.954-0.257v9.7h-3.083V20.45
	c0-4.367,2.569-5.138,6.1-5.138C28.345,15.312,31.107,18.523,31.107,22.826z M22.309,17.112c-2.183,0-3.147,0.771-3.147,3.083v8.927
	c0.8,0.182,1.619,0.268,2.44,0.257c4.367,0,6.294-2.826,6.294-6.55C27.896,19.612,26.29,17.112,22.309,17.112z"
    />
    <path
            id="Path_8_1_"
            d="M37.785,28.477v12.138h-3.018V15.697h3.018v11.688l8.028-9.376c1.541-1.67,3.018-2.376,4.5-2.376
	c0.388,0.007,0.775,0.05,1.156,0.128l-8.541,9.633c-0.848,1.069-2.02,1.835-3.339,2.183v0.706c1.479,0.448,2.781,1.346,3.725,2.569
	l8.734,9.761c-0.37,0.137-0.762,0.202-1.156,0.193c-1.82-0.056-3.518-0.927-4.625-2.373L37.785,28.477z"
    />
    <path
            id="Path_9_1_"
            d="M63.088,41c-6.229,0-10.789-5.009-10.789-13.1c0-7.322,4.56-12.781,10.789-12.781s10.725,5.523,10.725,12.78
	C73.813,35.862,69.317,41,63.088,41z M62.96,17.174c-4.431,0-7.321,4.5-7.321,10.4c0,6.872,2.89,11.431,7.514,11.431
	c4.431,0,7.321-4.56,7.321-10.725C70.538,21.734,67.648,17.174,62.96,17.174z"
    />
</svg>
